<?xml version="1.0" standalone="no"?>
<!DOCTYPE svg PUBLIC "-//W3C//DTD SVG 1.1//EN" "http://www.w3.org/Graphics/SVG/1.1/DTD/svg11.dtd" >
<svg xmlns="http://www.w3.org/2000/svg">
<metadata></metadata>
<defs>
<font id="bellslimbold" horiz-adv-x="1222" >
<font-face units-per-em="2048" ascent="1554" descent="-494" />
<missing-glyph horiz-adv-x="536" />
<glyph horiz-adv-x="0" />
<glyph unicode="&#xd;" horiz-adv-x="536" />
<glyph unicode=" "  horiz-adv-x="536" />
<glyph unicode="&#x09;" horiz-adv-x="536" />
<glyph unicode="&#xa0;" horiz-adv-x="536" />
<glyph unicode="!" horiz-adv-x="481" d="M121 102q0 55 34.5 86t88.5 31q57 0 86.5 -31.5t29.5 -85.5q0 -49 -28.5 -82.5t-87.5 -33.5q-57 0 -90 31.5t-33 84.5zM152 348v1114h178v-1114h-178z" />
<glyph unicode="&#x22;" horiz-adv-x="565" d="M106 1440h152l-10 -332h-133zM309 1440h152l-8 -332h-136z" />
<glyph unicode="#" horiz-adv-x="1404" d="M154 526l24 140h281l33 192h-281l22 141h281l49 291h146l-50 -291h193l49 291h146l-50 -291h279l-23 -141h-278l-33 -192h279l-25 -140h-278l-52 -309h-145l53 309h-194l-52 -309h-145l51 309h-280zM604 666h193l32 192h-194z" />
<glyph unicode="$" horiz-adv-x="1183" d="M45 254l166 94q55 -92 118.5 -132t155.5 -50v516q-90 31 -158.5 65.5t-115.5 80.5t-71.5 107.5t-24.5 145.5q0 160 100 250t270 113v125h187v-125q49 -6 99 -20.5t99.5 -43t94.5 -72.5t86 -112l-156 -98q-57 90 -108.5 124.5t-114.5 45.5v-451q82 -27 155.5 -60.5 t129 -82.5t87 -121t31.5 -172q0 -72 -19.5 -138.5t-65.5 -118.5t-124 -87t-194 -47v-123h-187v121q-66 6 -127 22.5t-118.5 47t-106.5 78.5t-88 118zM309 1085q0 -31 5 -57.5t23.5 -51t53.5 -47t94 -46.5v385q-72 -12 -124 -52t-52 -131zM672 166q63 6 104 22.5t64.5 42 t33 59.5t9.5 75q0 57 -13.5 97t-40 68.5t-66.5 50t-91 40.5v-455z" />
<glyph unicode="%" horiz-adv-x="1556" d="M45 1137q0 76 28.5 137t77 105t113 69t135.5 25q74 0 137.5 -25t111.5 -69t76 -105.5t28 -136.5q0 -78 -27 -139.5t-75 -105.5t-112.5 -67.5t-138.5 -23.5t-138 23.5t-112.5 67.5t-76 105.5t-27.5 139.5zM158 -20l995 1466h213l-985 -1466h-223zM231 1137 q0 -74 47.5 -122t120.5 -48q74 0 121 48t47 122q0 76 -45 119.5t-123 43.5t-123 -44t-45 -119zM801 311q0 74 26.5 136.5t73.5 106.5t111.5 69.5t138.5 25.5t138.5 -25.5t112.5 -70.5t75.5 -107.5t27.5 -134.5q0 -74 -27.5 -134t-75.5 -105t-112.5 -70t-138.5 -25t-137.5 25 t-110.5 70t-74.5 105.5t-27.5 133.5zM981 311q0 -72 48 -118t122 -46q76 0 122 46.5t46 117.5q0 78 -45 124t-123 46t-124 -46t-46 -124z" />
<glyph unicode="&#x26;" horiz-adv-x="1343" d="M72 381q0 70 23.5 134.5t61.5 121.5t87 107.5t100 93.5q-43 57 -71.5 119.5t-28.5 138.5t28.5 137t77.5 105t114.5 69t141.5 25q61 0 110.5 -8.5t90.5 -30t78 -60.5t73 -98l-147 -115q-43 76 -88 105.5t-117 29.5q-74 0 -118 -40.5t-44 -110.5q0 -66 27 -112t72 -101 q78 -98 173 -203.5t191 -204.5q20 37 44 82t53 111l178 -74q-39 -86 -71 -146.5t-67 -113.5q76 -78 161 -160t196 -184h-271q-55 51 -103 96t-95 92q-84 -92 -182.5 -148t-239.5 -56q-96 0 -177 25.5t-139.5 75.5t-90 125t-31.5 173zM268 381q0 -106 67.5 -161.5 t180.5 -55.5q82 0 152.5 43t130.5 115q-41 43 -80 83.5t-79 83.5t-85 92.5t-96 110.5q-86 -68 -139.5 -146.5t-51.5 -164.5z" />
<glyph unicode="'" horiz-adv-x="352" d="M100 1440h152l-8 -332h-135z" />
<glyph unicode="(" horiz-adv-x="552" d="M92 659q0 248 49 484.5t154 490.5h192q-59 -135 -99 -261t-66.5 -244.5t-38 -234t-11.5 -232.5q0 -250 48.5 -476.5t162.5 -468.5h-194q-100 229 -148.5 459t-48.5 483z" />
<glyph unicode=")" horiz-adv-x="555" d="M68 -283q113 242 162 468.5t49 476.5q0 117 -12.5 232.5t-38 234t-65.5 244.5t-95 261h190q104 -254 154.5 -488.5t50.5 -481.5q0 -254 -49 -485.5t-152 -461.5h-194z" />
<glyph unicode="*" horiz-adv-x="948" d="M92 1047v149l283 -20l-154 221l137 78l117 -240l121 238l135 -76l-153 -221l280 18v-152l-276 17l153 -217l-133 -78l-127 244l-131 -242l-133 76l160 219z" />
<glyph unicode="+" horiz-adv-x="1105" d="M96 625v172h365v360h182v-360h365v-172h-365v-365h-182v365h-365z" />
<glyph unicode="," horiz-adv-x="405" d="M88 98q0 66 35 93.5t84 27.5q121 0 121 -137q0 -41 -14.5 -88t-39 -92t-55.5 -87t-61 -75l-68 31q35 55 59.5 107t32.5 112q-47 10 -70.5 40.5t-23.5 67.5z" />
<glyph unicode="-" horiz-adv-x="974" d="M145 498v172h682v-172h-682z" />
<glyph unicode="." horiz-adv-x="448" d="M106 102q0 55 32 85t87 30q117 0 117 -115q0 -53 -30 -85.5t-87 -32.5t-88 31.5t-31 86.5z" />
<glyph unicode="/" horiz-adv-x="866" d="M27 0l649 1475h201l-650 -1475h-200z" />
<glyph unicode="0" horiz-adv-x="1353" d="M123 723q0 123 19.5 253t80 237.5t170 176t289.5 68.5q121 0 208 -31.5t148.5 -87t98.5 -128t57 -154.5t27.5 -168t7.5 -166q0 -78 -8.5 -163t-30 -167t-59 -155.5t-98 -129t-147.5 -88t-204 -32.5q-121 0 -208 31.5t-149.5 86t-101.5 127t-61.5 154.5t-30.5 168t-8 168z M328 725q0 -109 12 -209t50 -178t107.5 -125t184.5 -47q113 0 181.5 47t103 126t46 179t11.5 207q0 106 -11.5 207.5t-46 178.5t-103 124t-181.5 47q-117 0 -186.5 -46t-107.5 -123t-49 -178t-11 -210z" />
<glyph unicode="1" horiz-adv-x="694" d="M92 1044v230q41 35 84 70.5t82 66.5q23 16 54.5 30.5t64.5 14.5q63 0 89 -35t26 -86v-1335h-205v1206z" />
<glyph unicode="2" horiz-adv-x="1093" d="M113 0q2 45 2 84v74q2 61 9 115.5t24.5 103.5t45 95t70.5 95q78 88 176.5 153.5t194.5 133.5q72 51 104.5 102.5t32.5 137.5q0 100 -60.5 145t-144.5 45q-125 0 -182 -63.5t-70 -194.5h-200q8 211 122.5 322.5t331.5 111.5q76 0 150 -20.5t132 -64.5t95 -113.5t37 -167.5 q0 -59 -12.5 -112.5t-45 -105t-91 -104.5t-148.5 -115q-74 -49 -135.5 -95t-107.5 -95t-73.5 -103.5t-31.5 -117.5l-2 -64h651v-182h-874z" />
<glyph unicode="3" horiz-adv-x="1179" d="M31 356l188 76q41 -152 127 -208t203 -56q127 0 203.5 69.5t76.5 202.5q0 121 -88 194t-235 73h-111v180h101q57 0 101 16.5t74.5 45t46 66.5t15.5 81q0 82 -50 131t-136 49q-92 0 -156.5 -41t-109.5 -145l-172 90q39 80 85 133t101 85t119.5 44t136.5 12 q78 0 148.5 -22.5t125 -66.5t87 -111.5t32.5 -159.5q0 -86 -37 -154t-102 -121q111 -53 174 -148.5t63 -230.5q0 -109 -40.5 -193.5t-108.5 -143t-157 -89t-187 -30.5q-188 0 -324.5 86t-193.5 286z" />
<glyph unicode="4" horiz-adv-x="1144" d="M10 410v153l565 780q37 49 84.5 83t112.5 34q70 0 117 -43t47 -137v-1280h-195v410h-731zM258 590h483v670z" />
<glyph unicode="5" horiz-adv-x="1185" d="M66 248l151 121q55 -88 137 -146.5t215 -58.5q147 0 227.5 87t80.5 230q0 141 -84 224t-238 83q-82 0 -175 -20t-198 -72v570q0 68 46 122t139 54h622v-176h-575q-39 0 -39 -41v-279q74 23 184 23q117 0 213 -33t165 -96.5t105.5 -153.5t36.5 -203q0 -104 -35.5 -195 t-101 -160t-160 -107.5t-213.5 -38.5q-182 0 -300.5 67.5t-202.5 198.5z" />
<glyph unicode="6" horiz-adv-x="1269" d="M141 479q0 125 43 256t110.5 256t149.5 240t162 211h242q-129 -154 -217 -277t-148 -227q82 31 174 31q115 0 207 -36t157.5 -101.5t100.5 -155.5t35 -197q0 -106 -38 -197.5t-105.5 -159t-161.5 -106.5t-207 -39q-109 0 -201 36t-159.5 101.5t-105.5 158t-38 206.5z M338 475q0 -74 22.5 -133t64.5 -100t99.5 -63.5t126.5 -22.5q68 0 124 23.5t98 65.5t65 100t23 130q0 147 -82.5 231.5t-221.5 84.5q-145 0 -232 -86.5t-87 -229.5z" />
<glyph unicode="7" horiz-adv-x="1024" d="M18 1266v176h760q90 0 130 -47t40 -109q0 -37 -10.5 -70.5t-24.5 -68.5q-31 -72 -69.5 -158t-79.5 -180t-83 -190.5t-81 -186.5q-92 -211 -188 -432h-211l553 1266h-736z" />
<glyph unicode="8" d="M111 444q0 127 59 222.5t158 158.5q-61 47 -95 115t-34 156q0 78 26.5 145.5t77.5 117.5t127 78.5t172 28.5q94 0 170 -26.5t128 -74.5t80 -114.5t28 -144.5q0 -88 -32 -155.5t-91 -114.5q104 -63 165.5 -160.5t61.5 -231.5q0 -106 -39 -192t-107.5 -147.5t-160 -95.5 t-195.5 -34q-106 0 -197 33t-159 94.5t-105.5 148.5t-37.5 193zM307 446q0 -129 83 -209.5t220 -80.5q68 0 123 21.5t95 60t62.5 92t22.5 116.5t-22.5 115.5t-62.5 90.5t-95 59.5t-123 21.5t-123 -21.5t-95 -59.5t-62.5 -91t-22.5 -115zM391 1100q0 -94 55.5 -148.5 t155.5 -54.5q98 0 154.5 54.5t56.5 148.5t-54.5 144t-156.5 50q-104 0 -157.5 -52t-53.5 -142z" />
<glyph unicode="9" horiz-adv-x="1239" d="M111 977q0 106 38.5 195.5t106.5 154t160 100t198 35.5q104 0 195.5 -33.5t158 -97t105.5 -154t39 -202.5q0 -96 -18.5 -178t-49 -156t-69.5 -139.5t-78 -126.5q-39 -59 -114.5 -161.5t-166.5 -213.5h-243q135 158 235.5 289t169.5 243q-90 -29 -176 -28 q-113 0 -204 35.5t-154.5 98t-98 149.5t-34.5 190zM305 983q0 -143 80 -224t217 -81q154 0 235 74.5t81 222.5q0 145 -83.5 229t-220.5 84q-72 0 -129 -23.5t-97 -64.5t-61.5 -96t-21.5 -121z" />
<glyph unicode=":" horiz-adv-x="448" d="M106 102q0 55 32 85t87 30q117 0 117 -115q0 -53 -30 -85.5t-87 -32.5t-88 31.5t-31 86.5zM106 690q0 55 32 85t87 30q117 0 117 -115q0 -53 -30 -86t-87 -33t-88 32t-31 87z" />
<glyph unicode=";" horiz-adv-x="456" d="M111 98q0 66 34.5 93.5t83.5 27.5q121 0 121 -137q0 -41 -14 -88t-39 -92t-55.5 -87t-61.5 -75l-67 31q35 55 59.5 107t32.5 112q-47 10 -70.5 40.5t-23.5 67.5zM113 690q0 55 31.5 85t86.5 30q117 0 117 -115q0 -53 -29 -86t-88 -33q-57 0 -87.5 32t-30.5 87z" />
<glyph unicode="&#x3c;" horiz-adv-x="962" d="M62.5 708.5q-3.5 28.5 13 57.5t57.5 51l778 447v-191l-622 -356l622 -357v-192l-778 442q-31 18 -49 44t-21.5 54.5z" />
<glyph unicode="=" horiz-adv-x="1292" d="M125 446v166h1042v-166h-1042zM125 786v168h1042v-168h-1042z" />
<glyph unicode="&#x3e;" horiz-adv-x="962" d="M51 166v192l625 357l-625 356v193l780 -447q39 -23 55.5 -51.5t14.5 -58t-20.5 -55t-49.5 -42.5z" />
<glyph unicode="?" horiz-adv-x="927" d="M43 1204q39 80 90 129t108.5 77t118 38t115.5 10q184 0 287.5 -87t103.5 -243q0 -70 -20.5 -124t-53 -100t-73.5 -88t-82 -91t-68.5 -105.5t-27.5 -130.5v-143h-193v139q0 66 14.5 120t37 99.5t51 84t59.5 73.5q25 29 53.5 58.5t53 63.5t40 70t15.5 76q0 63 -44 106.5 t-157 43.5q-86 0 -147.5 -30.5t-108.5 -116.5zM326 106q0 57 34.5 88t90.5 31q59 0 88.5 -32.5t29.5 -86.5q0 -51 -29.5 -85.5t-88.5 -34.5q-57 0 -91 32.5t-34 87.5z" />
<glyph unicode="@" horiz-adv-x="1695" d="M123 580q0 164 59.5 301t164 236.5t246.5 154.5t308 55q125 0 238.5 -37t197.5 -107.5t134.5 -174t50.5 -238.5q0 -92 -26 -182t-75 -161t-118.5 -114t-155.5 -43q-39 0 -79 12.5t-69 45.5q-51 -29 -111.5 -45.5t-119.5 -16.5q-78 0 -136.5 24.5t-97 66.5t-58 100.5 t-19.5 126.5q0 86 31.5 165.5t89 141t136.5 97.5t173 36q113 0 183.5 -31.5t135.5 -97.5l-82 -346q-6 -25 -11 -53.5t-5 -46.5q0 -47 49 -48q55 0 95 38t67 93.5t40 120t13 119.5q0 98 -36 176t-98 131.5t-149.5 81t-187.5 27.5q-135 0 -249.5 -45t-197.5 -126 t-130.5 -192.5t-47.5 -244.5q0 -121 42 -216.5t116 -162t175.5 -102.5t219.5 -36q170 0 317.5 37t299.5 136l74 -125q-84 -53 -167 -89t-168 -58.5t-174.5 -32t-187.5 -9.5q-143 0 -271 44t-223.5 128t-150.5 206t-55 280zM608 590q0 -88 41 -139.5t129 -51.5q41 0 89 14.5 t83 39.5l92 389q-31 27 -72.5 38t-88.5 11q-66 0 -116 -27.5t-85 -71.5t-53.5 -97.5t-18.5 -104.5z" />
<glyph unicode="A" horiz-adv-x="1310" d="M18 0l451 1294q10 27 24.5 53.5t36 47t52 34t71.5 13.5q82 0 125 -46t62 -102l448 -1294h-209l-172 510h-510l-172 -510h-207zM461 692h381l-189 555z" />
<glyph unicode="B" horiz-adv-x="1224" d="M174 0v1143q0 125 74 204.5t190 98.5q27 4 64 6t75.5 2t74.5 -3t65 -5q72 -10 135 -41t109.5 -79t73 -112.5t26.5 -140.5q0 -88 -42 -166t-120 -125q109 -41 176.5 -139t67.5 -225q0 -86 -28 -154.5t-76 -121t-114.5 -85.5t-142.5 -47q-25 -4 -66.5 -7t-76.5 -3h-465z M369 176h282q154 0 219.5 68.5t65.5 173.5q0 115 -79 183.5t-239 68.5h-249v-494zM369 844h209q61 0 90 6q84 14 136 73.5t52 145.5t-49 137.5t-135 61.5q-41 4 -79 6t-79 2q-66 0 -105.5 -32t-39.5 -103v-297z" />
<glyph unicode="C" horiz-adv-x="1368" d="M92 719q0 156 48 290t137.5 232t216.5 154.5t286 56.5q143 0 275.5 -52t257.5 -186l-123 -145q-86 92 -188.5 146.5t-221.5 54.5q-113 0 -203 -41t-152.5 -115t-96 -174t-33.5 -219t33.5 -220.5t98.5 -175t158 -114.5t210 -41q115 0 230.5 43t205.5 131l96 -154 q-63 -59 -131 -99t-136.5 -63.5t-138 -32.5t-137.5 -9q-160 0 -288.5 55t-218 153.5t-137.5 232.5t-48 292z" />
<glyph unicode="D" horiz-adv-x="1441" d="M184 0v1143q0 82 31 141t82 97t115.5 55.5t132.5 17.5h88q178 0 310 -61.5t221 -164t133 -234.5t44 -275t-43 -273.5t-127 -229.5t-210.5 -157.5t-294.5 -58.5h-482zM385 180h258h54.5t43.5 4q90 10 164 52.5t126 111t81 162.5t29 209q0 106 -31 206.5t-93.5 177.5 t-157.5 123t-224 46h-88q-74 0 -118 -29t-44 -104v-959z" />
<glyph unicode="E" horiz-adv-x="1144" d="M174 0v1108q0 23 1 43t5 37q20 100 94 167.5t185 80.5q10 2 35.5 4t54.5 2h467v-180h-486q-158 0 -157 -162v-262h571v-181h-571v-477h680v-180h-879z" />
<glyph unicode="F" horiz-adv-x="1081" d="M164 0v1108q0 23 1 43t5 37q20 100 94 167.5t185 80.5q10 2 35.5 4t45.5 2h476v-178h-486q-156 0 -155 -164v-254h557v-180h-557v-666h-201z" />
<glyph unicode="G" horiz-adv-x="1472" d="M92 709q0 156 47 292t136.5 237t219.5 158.5t293 57.5q156 0 289 -50t258 -183l-133 -134q-104 104 -201.5 145.5t-207.5 41.5q-119 0 -210 -42t-153.5 -118t-95.5 -178t-33 -225t32 -224.5t95.5 -175t158.5 -113.5t224 -40q80 0 142.5 13t115.5 36q35 16 49.5 39.5 t14.5 60.5v258h-326v176h532v-446q0 -100 -51 -160.5t-162 -101.5q-72 -27 -156.5 -40t-164.5 -13q-178 0 -312.5 55t-223.5 153.5t-133 231.5t-44 289z" />
<glyph unicode="H" horiz-adv-x="1472" d="M190 0v1442h207v-594h678v594h207v-1442h-207v666h-678v-666h-207z" />
<glyph unicode="I" horiz-adv-x="585" d="M190 0v1442h205v-1442h-205z" />
<glyph unicode="J" horiz-adv-x="1007" d="M102 49v195q104 -51 178 -63.5t123 -12.5q70 0 114 18.5t69.5 52t36 80t10.5 99.5v1024h201v-1016q-1 -65 -7 -96q-18 -158 -128.5 -252t-288.5 -94q-66 0 -148 13t-160 52z" />
<glyph unicode="K" horiz-adv-x="1265" d="M174 0v1442h199v-602h86q104 0 177 33.5t122 109.5q10 12 23.5 38t19.5 42l166 379h215l-211 -473l-21.5 -43t-23.5 -43q-25 -37 -57.5 -70t-75.5 -59l456 -754h-231l-356 584q-16 27 -32 44t-36.5 26.5t-49 13.5t-71.5 4h-100v-672h-199z" />
<glyph unicode="L" horiz-adv-x="1083" d="M174 211v1231h205v-1213q0 -16 9 -30.5t34 -14.5h620v-184h-645q-45 0 -86 14.5t-71.5 42t-48 66.5t-17.5 88z" />
<glyph unicode="M" horiz-adv-x="1740" d="M184 0v1280q0 78 48.5 126t123.5 48q76 0 121 -41t72 -100l321 -717l322 717q10 25 26.5 50.5t40 44.5t55.5 32.5t72 13.5q86 0 128 -52t42 -124v-1278h-194v1227l-410 -905h-164l-409 905v-1227h-195z" />
<glyph unicode="N" horiz-adv-x="1497" d="M184 0v1272q0 72 43 127t127 55q78 0 126 -44t79 -103l559 -1096v1233h195v-1270q0 -78 -45 -133t-123 -55q-66 0 -114 30.5t-77 87.5q-147 287 -286.5 566.5t-288.5 566.5v-1237h-195z" />
<glyph unicode="O" horiz-adv-x="1523" d="M92 719q0 147 40 282.5t123 236.5t210 161.5t299 60.5q166 0 291 -60.5t209 -161.5t126 -236.5t42 -282.5t-42 -281.5t-126 -238t-208 -164t-290 -60.5q-170 0 -296 60.5t-210 163t-126 237.5t-42 283zM297 721q0 -117 27.5 -220.5t86 -180t146.5 -120.5t209 -44 q119 0 205 44t143 120.5t85 180t28 220.5q0 119 -30 220t-88 177t-144 119t-201 43q-121 0 -208 -44t-145.5 -119t-86 -177t-27.5 -219z" />
<glyph unicode="P" horiz-adv-x="1167" d="M174 0v1147q0 121 68.5 197.5t181.5 99.5q23 4 53.5 6t54.5 2h84q25 0 57 -1t54 -5q82 -12 152.5 -49t121 -93.5t79 -131t28.5 -162.5q0 -94 -27.5 -170t-77 -133.5t-118 -95.5t-148.5 -56q-37 -8 -82 -11t-88 -3h-194v-541h-199zM373 713h194q37 0 67 2t50 6 q102 20 164.5 93t62.5 194q0 98 -56 172t-148 92q-16 4 -40 5t-42 1h-93q-33 0 -62.5 -4t-51 -17.5t-33.5 -38t-12 -63.5v-442z" />
<glyph unicode="Q" horiz-adv-x="1562" d="M100 711q0 156 42 293t127 237t213 158.5t298 58.5q168 0 295 -59.5t212 -161.5t128 -238.5t43 -287.5q0 -104 -21.5 -203.5t-64.5 -185.5t-106.5 -157t-149.5 -120q49 -35 110.5 -71.5t141.5 -36.5h137v-191h-149q-61 0 -108.5 11.5t-90.5 32t-84 46t-88 55.5 q-45 29 -90 49.5t-100 20.5h-11q-170 0 -298 59.5t-214 161t-129 237.5t-43 292zM303 713q0 -123 29.5 -226.5t90 -179.5t150 -118t209.5 -42q119 0 207 43t146.5 119t87 179.5t28.5 224.5q0 119 -29.5 222t-88 178t-146.5 118t-205 43q-121 0 -211 -42t-149.5 -116 t-89 -177t-29.5 -226z" />
<glyph unicode="R" horiz-adv-x="1280" d="M174 0v1139q0 111 56.5 191.5t179.5 107.5q27 4 60.5 8t64.5 4h100q33 0 67.5 -3t59.5 -7q74 -12 140.5 -45t115.5 -85.5t77.5 -124t28.5 -159.5q0 -147 -76.5 -249.5t-197.5 -149.5l381 -627h-236l-297 498q-35 59 -64.5 76.5t-72.5 17.5h-188v-592h-199zM373 766h264 q129 0 207 67.5t78 190.5q0 90 -49.5 155t-127.5 85q-41 10 -98 10h-131q-76 0 -109.5 -34t-33.5 -99v-375z" />
<glyph unicode="S" horiz-adv-x="1128" d="M43 233l145 119q76 -111 165 -151.5t216 -40.5q86 0 142.5 18.5t89.5 49t46 71.5t13 84q0 49 -17.5 86t-47 64.5t-67.5 48t-79 36.5q-47 16 -94 34l-94 36q-72 27 -135.5 60.5t-110.5 81t-73.5 112t-26.5 152.5q0 78 29.5 144.5t87 114.5t141.5 74.5t194 26.5 q80 0 142.5 -5t117 -23.5t103.5 -54.5t104 -95l-135 -131q-76 88 -158 112.5t-172 24.5q-74 0 -122 -15.5t-77.5 -40t-42 -56t-12.5 -66.5q0 -39 10.5 -73t43 -64.5t92 -61.5t155.5 -63q86 -29 167 -64t143.5 -85t100.5 -122.5t38 -175.5q0 -82 -27.5 -156.5t-89 -131 t-160 -90t-237.5 -33.5q-70 0 -140.5 9t-137 36.5t-125 77t-105.5 126.5z" />
<glyph unicode="T" horiz-adv-x="1075" d="M16 1268v174h1043v-174h-420v-1268h-203v1268h-420z" />
<glyph unicode="U" horiz-adv-x="1431" d="M174 487v955h207v-948q0 -37 2 -68t6 -47q10 -45 36 -85t71 -69.5t110.5 -47t153.5 -17.5q63 0 144 12t140 31v1239h205v-1374q-123 -47 -250 -69t-258 -22q-211 0 -352 81t-190 233q-14 41 -19.5 90t-5.5 106z" />
<glyph unicode="V" horiz-adv-x="1331" d="M23 1442h219l434 -1245q2 -3 2 -7q0 2 1 3.5t1 3.5q10 33 59 176q20 61 51 151t74 220t100.5 302.5t133.5 395.5h211l-439 -1297q-23 -66 -67.5 -111.5t-126.5 -45.5q-78 0 -123 44t-70 113z" />
<glyph unicode="W" horiz-adv-x="1878" d="M31 1442h200l299 -1258l322 922h174l326 -924l299 1260h196l-303 -1274q-16 -74 -59 -125t-131 -51q-45 0 -77 13t-54.5 35.5t-38 51.5t-25.5 60l-219 636l-219 -632q-10 -31 -25.5 -60.5t-38 -53.5t-55.5 -37t-78 -13q-74 0 -121 40t-65 113z" />
<glyph unicode="X" horiz-adv-x="1275" d="M16 0l469 700q25 37 25 55.5t-16 43.5l-433 643h240l342 -520l342 520h227l-421 -641q-18 -29 -18.5 -44.5t22.5 -47.5l473 -709h-236l-391 588l-389 -588h-236z" />
<glyph unicode="Y" horiz-adv-x="1169" d="M4 1442h227l355 -613l352 613h227l-422 -717q-16 -29 -36.5 -74t-20.5 -86v-565h-203v565q0 37 -19.5 79t-41.5 81z" />
<glyph unicode="Z" d="M84 137q0 43 19.5 78t41.5 64l727 978h-694v185h762q31 0 60.5 -7.5t53 -23.5t39 -42t15.5 -62q0 -33 -12.5 -66t-53.5 -86q-78 -104 -180 -242.5t-205.5 -277.5t-194.5 -260t-143 -191h811v-184h-878q-78 0 -123 38t-45 99z" />
<glyph unicode="[" horiz-adv-x="499" d="M94 6v1444q0 94 56.5 153.5t140.5 59.5h137v-180h-145q-10 -2 -12.5 -5t-2.5 -18v-1464q0 -14 2 -17.5t13 -7.5h145v-178h-137q-84 0 -140.5 59.5t-56.5 153.5z" />
<glyph unicode="\" horiz-adv-x="845" d="M-10 1473h205l624 -1475h-207z" />
<glyph unicode="]" horiz-adv-x="522" d="M102 -29h146q14 4 14 25v1462q0 14 -2 17.5t-12 5.5h-146v182h138q86 0 141 -59.5t55 -153.5v-1444q0 -51 -17.5 -96t-58.5 -76q-53 -41 -120 -41h-138v178z" />
<glyph unicode="^" horiz-adv-x="2115" d="M145 485q0 115 40 210.5t108.5 163t161.5 105t202 37.5q174 0 286 -75.5t165 -198.5q16 -39 25 -90q8 -43 12 -101.5t-6 -127.5h-725q2 -41 20.5 -82t52 -73t84 -51.5t117.5 -19.5q72 0 133.5 20.5t108.5 57.5l141 -162q-68 -61 -171 -96t-238 -35q-98 0 -191.5 30 t-165.5 93.5t-116 161.5t-44 233zM426 606h444q-16 92 -69 141.5t-146 49.5q-90 0 -150.5 -52.5t-78.5 -138.5zM1378 -6v977h264v-103h5q47 68 117.5 96.5t146.5 28.5q29 0 65.5 -7t63.5 -17v-238q-29 12 -71 19.5t-73 7.5q-78 0 -127 -25.5t-77.5 -68.5t-39 -96.5 t-10.5 -108.5v-465h-264z" />
<glyph unicode="_" horiz-adv-x="1097" d="M133 -328h834v-67h-834v67z" />
<glyph unicode="`" horiz-adv-x="1855" d="M205 717v641q0 39 23.5 62.5t56 28.5t66.5 -11.5t55 -59.5l157 -338l156 338q20 43 54 59.5t66.5 11.5t56.5 -28.5t24 -62.5v-641h-117v569l-193 -412h-94l-194 412v-569h-117zM1053 1077q0 80 27.5 148.5t77.5 119t122 79t158 28.5q90 0 163.5 -31.5t145.5 -105.5 l-88 -76q-53 57 -105.5 82t-113.5 25t-111.5 -20.5t-85.5 -55.5t-54.5 -84t-19.5 -107q0 -57 18.5 -106t54.5 -85t86 -56.5t112 -20.5q37 0 67.5 5t59 16.5t57.5 31t62 47.5l63 -88q-74 -66 -148.5 -92t-160.5 -26q-88 0 -160 27.5t-122 77.5t-77.5 118.5t-27.5 148.5z" />
<glyph unicode="a" horiz-adv-x="1228" d="M86 477q0 106 35 200.5t101.5 165t163.5 111.5t220 41q92 0 170 -25.5t131 -78.5v86h174v-977h-172q-4 16 -9 33.5t-32 9.5q-63 -23 -128.5 -40t-141.5 -17q-117 0 -212 33.5t-161.5 98t-102.5 154.5t-36 205zM283 481q0 -147 84 -238t249 -91q74 0 144.5 20.5 t128.5 46.5v348q0 61 -21.5 109.5t-59.5 83.5t-88.5 53t-105.5 18q-84 0 -146 -26.5t-103 -74.5t-61.5 -111.5t-20.5 -137.5z" />
<glyph unicode="b" horiz-adv-x="1228" d="M150 0v1444h188v-549q59 59 143 90t176 31q113 0 202 -38t152.5 -104.5t97.5 -159.5t34 -204q0 -109 -35 -204t-100.5 -165.5t-158.5 -111.5t-210 -41q-80 0 -134 12t-108 35q-8 2 -18 7t-19.5 5t-15.5 -5t-6 -22v-20h-188zM340 238q37 -16 69.5 -32t66.5 -26t71 -16 t82 -6q80 0 139 26.5t98 73.5t58.5 111.5t19.5 140.5q0 70 -17.5 130t-54 104t-92 70t-131.5 26q-68 0 -124 -22.5t-97 -64.5t-64.5 -100.5t-23.5 -130.5v-284z" />
<glyph unicode="c" horiz-adv-x="1071" d="M86 489q0 104 38 196.5t105.5 161t161.5 107.5t209 39q139 0 232.5 -42t179.5 -144l-138 -115q-66 72 -127 101.5t-147 29.5q-72 0 -129 -25.5t-97 -70.5t-62.5 -103.5t-22.5 -123.5q0 -166 87 -257t234 -91q78 0 146.5 28.5t152.5 100.5l109 -138q-98 -94 -200.5 -127.5 t-219.5 -33.5q-121 0 -216 38.5t-160.5 106.5t-100.5 161t-35 201z" />
<glyph unicode="d" horiz-adv-x="1224" d="M86 500q0 106 36 200.5t102.5 164t160.5 109.5t211 40q96 0 164.5 -22.5t124.5 -61.5v516h186v-1446h-186v20q0 14 -6.5 20.5t-15.5 5.5t-19 -5t-19 -6q-55 -20 -125.5 -33.5t-117.5 -13.5q-123 0 -215.5 39t-154.5 108.5t-94 162.5t-32 202zM285 504q0 -74 18.5 -137.5 t56 -109.5t97 -72.5t139.5 -26.5q96 0 162.5 21.5t120.5 60.5v358q0 104 -74 174t-203 70q-78 0 -137 -25.5t-99 -71t-60.5 -108t-20.5 -133.5z" />
<glyph unicode="e" horiz-adv-x="1124" d="M86 492q0 106 36 198t100.5 161t155.5 108.5t202 39.5q104 0 188 -32.5t145.5 -91t96 -140.5t41.5 -178q0 -2 1 -14.5t2 -30.5t1 -37.5v-38.5h-766q12 -135 91 -210.5t232 -75.5q90 0 165 21.5t159 74.5l80 -146q-55 -37 -102.5 -59.5t-95.5 -35.5t-100 -18t-116 -5 q-125 0 -221 38.5t-161.5 107.5t-99.5 162t-34 202zM295 592h553q-20 106 -82.5 175t-185.5 69q-117 0 -191 -70t-94 -174z" />
<glyph unicode="f" horiz-adv-x="747" d="M156 0v1051q0 80 23.5 147.5t69.5 117.5t113.5 78.5t155.5 28.5q57 0 117.5 -9t150.5 -52l-53 -164q-55 27 -101 39t-100 12q-86 0 -132 -47t-46 -147v-92h334v-179h-334v-784h-198z" />
<glyph unicode="g" horiz-adv-x="1224" d="M86 475q0 106 36 200.5t103.5 165t164.5 110.5t220 40q109 0 195 -29.5t144.5 -83t89 -125t30.5 -157.5v-559v-55q0 -229 -138 -357.5t-382 -128.5q-88 0 -189.5 21.5t-187.5 68.5l47 170q86 -43 170 -63.5t158 -20.5q152 0 241 74t89 225v45q0 12 -3.5 15.5t-23.5 -4.5 q-137 -59 -270 -60q-121 0 -213.5 37t-154.5 104.5t-94 160.5t-32 206zM287 477q0 -74 17.5 -134t54 -105t93 -70t136.5 -25q90 0 154.5 21.5t129.5 62.5v353q0 115 -73.5 176t-196.5 61q-76 0 -135 -25.5t-99 -71.5t-60.5 -108.5t-20.5 -134.5z" />
<glyph unicode="h" horiz-adv-x="1177" d="M150 0v1442h196v-527q63 53 141 78t154 25q199 0 308.5 -113.5t109.5 -304.5v-600h-201v592q0 117 -58.5 182.5t-174.5 65.5q-117 0 -198 -67.5t-81 -197.5v-575h-196z" />
<glyph unicode="i" horiz-adv-x="538" d="M150 1288q0 115 118 115q117 0 117 -115q0 -53 -30 -86t-87 -33t-87.5 32t-30.5 87zM170 0v977h195v-977h-195z" />
<glyph unicode="j" horiz-adv-x="526" d="M-141 -487l10 182q34 -2 64 -2q68 0 111 13q62 18 90 52.5t33 79.5t5 88v1051h195v-1059q0 -80 -20.5 -156.5t-77 -135t-155.5 -91.5q-75 -25 -181 -25q-35 0 -74 3zM152 1288q0 55 31.5 85t86.5 30q119 0 119 -115q0 -53 -30 -86t-89 -33q-57 0 -87.5 32t-30.5 87z" />
<glyph unicode="k" horiz-adv-x="1069" d="M150 0v1442h194v-813h53q59 0 103.5 3t80 21.5t65.5 56.5t61 107l73 160h215l-127 -264q-55 -115 -141 -176l354 -537h-235l-244 375q-16 27 -28.5 42t-24.5 23.5t-27.5 11.5t-38.5 3h-139v-455h-194z" />
<glyph unicode="l" horiz-adv-x="493" d="M150 0v1440h190v-1440h-190z" />
<glyph unicode="m" horiz-adv-x="1769" d="M156 0v858q102 61 205.5 98t226.5 37q217 0 323 -100q61 47 146.5 73.5t187.5 26.5q193 0 296.5 -91t103.5 -286v-616h-199v602q0 57 -8 98t-32 69t-65 41t-106 13q-113 0 -174.5 -43t-61.5 -88v-692h-198v645q0 98 -46 138t-169 40q-61 0 -124 -18.5t-110 -40.5v-764 h-196z" />
<glyph unicode="n" horiz-adv-x="1150" d="M143 0v854q98 66 215 102.5t228 36.5q209 0 327.5 -93t118.5 -290v-610h-198v586q0 117 -60.5 176t-198.5 59q-66 0 -129 -18.5t-106 -42.5v-760h-197z" />
<glyph unicode="o" d="M90 492q0 104 39 196t107.5 162t164 109.5t209.5 39.5q117 0 212.5 -38.5t165 -107.5t107.5 -162t38 -199q0 -109 -38 -201t-107.5 -161t-165 -107.5t-212.5 -38.5q-115 0 -210 39.5t-164.5 108.5t-107.5 162t-38 198zM287 494q0 -72 22.5 -133.5t63.5 -107.5 t101.5 -72.5t135.5 -26.5q74 0 133.5 25.5t102.5 70.5t66.5 107.5t23.5 136.5q0 68 -23.5 129t-66.5 107t-103.5 73.5t-132.5 27.5q-76 0 -135 -26.5t-101 -71.5t-64.5 -107.5t-22.5 -131.5z" />
<glyph unicode="p" horiz-adv-x="1198" d="M111 -408v951q0 98 32.5 181t96 143.5t154.5 94t206 33.5q111 0 203 -34.5t158.5 -99t104.5 -159t38 -213.5q0 -98 -31 -192t-95.5 -166t-163.5 -116t-236 -44q-68 0 -134.5 12.5t-134.5 43.5v-435h-198zM309 213q72 -39 136.5 -54.5t140.5 -15.5q80 0 139 27t98 73 t58.5 109.5t19.5 136.5q0 141 -78 234.5t-225 93.5t-218 -76.5t-71 -212.5v-315z" />
<glyph unicode="q" horiz-adv-x="1228" d="M86 479q0 109 39 203t107.5 162.5t165 108.5t212.5 40q98 0 183.5 -26.5t149 -78.5t99 -131t35.5 -184v-772q0 -51 47 -51h62v-164h-101q-102 0 -154 52.5t-52 148.5v244q-61 -27 -135 -42.5t-152 -15.5q-119 0 -212 37t-158.5 103.5t-100.5 160t-35 205.5zM285 485 q0 -72 18.5 -134t56 -107t97 -71t141.5 -26q78 0 143.5 15.5t137.5 44.5v360q0 121 -71 185.5t-202 64.5q-76 0 -135 -25.5t-101 -69.5t-63.5 -105.5t-21.5 -131.5z" />
<glyph unicode="r" horiz-adv-x="845" d="M139 0v758q0 70 41 116t101.5 73.5t130 38.5t125.5 11q43 0 85 -2t85 -13t85 -34.5t82 -66.5l-116 -127q-49 47 -106.5 63.5t-108.5 16.5q-70 0 -140 -27q-39 -16 -53 -37.5t-14 -62.5v-707h-197z" />
<glyph unicode="s" horiz-adv-x="991" d="M57 186l168 84q41 -76 99.5 -103.5t164.5 -27.5q74 0 120 9.5t72 24.5t34 34.5t8 40.5q0 39 -25.5 65.5t-66.5 46.5q-23 10 -47.5 19.5t-51.5 17.5q-29 10 -56 17.5t-56 17.5q-57 18 -112.5 42t-98.5 58.5t-69.5 83t-26.5 117.5q0 70 28.5 120t79.5 83t122 49t153 16 q43 0 97 -4t108.5 -23.5t104.5 -59.5t89 -111l-166 -80q-39 72 -99.5 94.5t-142.5 22.5q-31 0 -63.5 -4.5t-59 -15.5t-43 -30.5t-16.5 -48.5q0 -18 6 -36.5t30 -38t71 -40t131 -40.5q68 -18 133 -43t118.5 -62t86 -91t32.5 -130q0 -63 -21.5 -115.5t-71.5 -90.5t-134 -58.5 t-207 -20.5q-63 0 -124.5 9.5t-117 33t-102.5 64.5t-78 104z" />
<glyph unicode="t" horiz-adv-x="757" d="M143 319v916h195v-258h326v-176h-326v-467q0 -78 44 -124t124 -46q45 0 100.5 6t128.5 31v-164q-66 -29 -131.5 -38t-120.5 -9q-158 0 -249 90t-91 239z" />
<glyph unicode="u" horiz-adv-x="1142" d="M119 375v602h196v-600q0 -49 12.5 -91t44 -73t87 -48.5t139.5 -17.5q39 0 99.5 9.5t107.5 23.5v797h194v-916q-96 -41 -201.5 -63.5t-211.5 -22.5q-240 0 -353.5 102.5t-113.5 297.5z" />
<glyph unicode="v" horiz-adv-x="1077" d="M8 977h213l303 -772q10 -29 24.5 -29t24.5 29l291 772h205l-317 -811q-12 -29 -27.5 -60.5t-40.5 -58.5t-58.5 -43t-78.5 -16t-78 16t-56.5 42t-41 57.5t-29.5 64.5z" />
<glyph unicode="w" horiz-adv-x="1634" d="M16 977h201l250 -789q6 -16 16.5 -16t14.5 16l243 789h162l234 -787q4 -16 15 -16t15 16l252 787h199l-283 -844q-23 -66 -65.5 -105.5t-122.5 -39.5q-78 0 -121 42t-63 111l-146 475l-151 -473q-16 -57 -60.5 -106t-126.5 -49q-80 0 -123 44t-63 103z" />
<glyph unicode="x" horiz-adv-x="1128" d="M33 0l364 469q27 35 26 49t-20 39l-331 420h237l248 -318l248 318h233l-327 -420q-16 -23 -17.5 -38t25.5 -50l364 -469h-239l-289 373l-287 -373h-235z" />
<glyph unicode="y" horiz-adv-x="1204" d="M139 387v590h195v-584q0 -53 13 -97t44 -77t81 -51t122 -18q59 0 131 12t137 41v774h195v-989q0 -233 -134 -361.5t-378 -128.5q-88 0 -186.5 19.5t-186.5 62.5l49 166q86 -41 167 -57.5t153 -16.5q152 0 236.5 76t84.5 229v56q-119 -51 -276 -51q-207 0 -327 99 t-120 306z" />
<glyph unicode="z" horiz-adv-x="960" d="M90 117q0 43 23.5 78.5t46.5 64.5l458 555h-468v162h552q53 0 96.5 -28.5t43.5 -88.5q0 -33 -13.5 -62.5t-46.5 -68.5q-20 -27 -51 -64.5t-67.5 -82.5t-76.5 -93.5t-79 -95.5q-90 -111 -191 -231h543v-162h-631q-53 0 -96 27.5t-43 89.5z" />
<glyph unicode="{" horiz-adv-x="735" d="M78 637v174q111 0 160 36t49 116v370q0 166 109.5 253t291.5 87v-178q-113 0 -161 -34t-48 -120v-401q0 -51 -13 -87t-33.5 -60.5t-46.5 -41t-48 -26.5q25 -10 50.5 -27.5t45 -43t32.5 -61.5t13 -85v-399q0 -86 47 -120t162 -34v-182q-182 0 -291.5 88t-109.5 254v370 q0 78 -50.5 115t-158.5 37z" />
<glyph unicode="|" horiz-adv-x="454" d="M135 -106v1755h182v-1755h-182z" />
<glyph unicode="}" horiz-adv-x="780" d="M94 -45q115 0 162 34t47 120v399q0 49 13.5 85t34 61.5t46 43t49.5 27.5q-25 10 -49 26.5t-45.5 41t-35 60.5t-13.5 87v401q0 86 -47 120t-162 34v178q182 0 292 -87t110 -253v-370q0 -80 49 -116t160 -36v-174q-109 0 -159 -37t-50 -115v-370q0 -166 -108.5 -254 t-293.5 -88v182z" />
<glyph unicode="~" horiz-adv-x="1849" d="M205 717v641q0 41 23.5 65.5t56 28.5t66.5 -13.5t55 -60.5l157 -338l156 338q20 43 54 60.5t66.5 13.5t56.5 -27.5t24 -66.5v-641h-117v569l-193 -412h-94l-194 412v-569h-117zM1073 831v455q0 76 51.5 117t128.5 41h119q86 0 151.5 -30t110.5 -81t67.5 -116.5 t22.5 -139.5q0 -72 -21.5 -137.5t-65.5 -114.5t-109.5 -78.5t-151.5 -29.5h-180q-51 0 -87 30.5t-36 83.5zM1196 821h178q117 0 173.5 73t56.5 183q0 55 -14.5 103.5t-43 84t-72.5 57t-102 21.5h-108q-68 0 -68 -55v-467z" />
<glyph unicode="&#xa1;" horiz-adv-x="481" d="M121 1290q0 49 29 84t88 35q55 0 88.5 -33t33.5 -86q0 -55 -34.5 -84.5t-87.5 -29.5q-57 0 -87 31.5t-30 82.5zM152 -88v1112h178v-1112h-178z" />
<glyph unicode="&#xa2;" horiz-adv-x="1032" d="M59 489q0 94 29 178.5t83 151t129 111.5t167 61v119h180v-113q57 -6 103.5 -19t86.5 -36.5t76.5 -57.5t77.5 -81l-131 -119q-55 63 -103 96t-110 43v-667q66 8 123 37.5t129 99.5l107 -129q-82 -88 -165 -131t-194 -53v-127h-180v133q-98 16 -174 60t-128 110.5 t-79 151.5t-27 181zM250 500q0 -135 58.5 -220t158.5 -116v653q-100 -33 -158.5 -119t-58.5 -198z" />
<glyph unicode="&#xa3;" horiz-adv-x="978" d="M133 0v977q0 94 28.5 172t83 133t132.5 85t174 30q70 0 125 -8.5t101 -29t90 -56t94 -91.5l-123 -141q-53 68 -121 108t-166 40q-109 0 -168 -63.5t-55 -174.5v-197h362v-178h-362v-428h630v-178h-825z" />
<glyph unicode="&#xa4;" horiz-adv-x="839" d="M133 936l45 45l94 -92q66 51 156 51q86 0 147 -47l82 84l45 -47l-81 -84q47 -63 47 -148q0 -94 -52 -153l93 -94l-45 -48l-95 97q-61 -43 -141 -43q-84 0 -149 47l-93 -94l-47 49l94 94q-25 29 -36 66.5t-11 78.5q0 82 43 144zM248 700q0 -86 47 -135q49 -53 133 -53 q82 0 131 53q47 49 47 135q0 80 -49 136q-49 51 -129 51q-84 0 -133 -51q-47 -51 -47 -136z" />
<glyph unicode="&#xa5;" horiz-adv-x="1167" d="M43 1438h205l336 -637l340 637h198l-340 -658h271v-170h-373v-155h373v-172h-373v-283h-193v283h-372v172h372v155h-372v170h272z" />
<glyph unicode="&#xa6;" horiz-adv-x="337" d="M133 -145v610h74v-610h-74zM133 664v618h74v-618h-74z" />
<glyph unicode="&#xa7;" horiz-adv-x="1019" d="M23 84l153 102q57 -78 128 -113.5t192 -35.5q145 0 202.5 37t57.5 112q0 35 -14.5 62.5t-46 52.5t-86 49.5t-134.5 50.5q-92 31 -163.5 67t-120 81t-74 102.5t-25.5 132.5q0 53 19.5 99.5t52.5 81.5q-59 74 -60 182q0 74 30 130t83 94t128 57.5t167 19.5q49 0 106.5 -5 t113.5 -25.5t109.5 -62.5t94.5 -118l-152 -90q-47 80 -115.5 111.5t-158.5 31.5q-98 0 -155.5 -31.5t-57.5 -97.5q0 -53 26.5 -82.5t73.5 -56.5q23 -12 48.5 -24.5t54.5 -22.5q70 -27 148.5 -54.5t145 -70.5t110.5 -105.5t44 -158.5q0 -51 -18.5 -101.5t-52.5 -91.5 q35 -41 53 -87t18 -105q0 -68 -21.5 -128.5t-74.5 -106.5t-143.5 -72.5t-227.5 -26.5q-68 0 -133 10t-123.5 35t-110 66.5t-91.5 105.5zM285 793q0 -25 7 -49.5t32.5 -50t77 -54.5t141.5 -59q47 -16 92 -34t90 -40q25 35 25 72q0 70 -60.5 114.5t-183.5 85.5 q-53 18 -101.5 41t-91.5 45q-10 -12 -19 -33.5t-9 -37.5z" />
<glyph unicode="&#xa8;" horiz-adv-x="686" d="M27 1272q0 113 114 112q111 1 111 -112q0 -117 -111 -117q-115 0 -114 117zM434 1272q0 113 115 112q110 1 110 -112q0 -117 -110 -117q-115 0 -115 117z" />
<glyph unicode="&#xa9;" horiz-adv-x="1325" d="M59 909q0 131 43 239.5t122 186.5t190.5 122t249.5 44q137 0 247.5 -44t189.5 -122t122 -186.5t43 -239.5q0 -129 -43 -238.5t-122 -187t-189.5 -122t-247.5 -44.5t-249 44.5t-191 122t-122 187t-43 238.5zM195 909q0 -104 32.5 -189t93 -146.5t147.5 -94.5t196 -33 t195.5 33t147 94.5t93.5 146.5t33 189t-33 189.5t-93.5 147t-147 94t-195.5 32.5t-196 -32.5t-147.5 -94t-93 -146.5t-32.5 -190zM322 911q0 72 23.5 135.5t68.5 111.5t109.5 76t146.5 28q76 0 146.5 -27t131.5 -105l-86 -81q-45 55 -93 76.5t-99 21.5q-109 0 -166.5 -66.5 t-57.5 -167.5q0 -102 57.5 -167.5t168.5 -65.5q53 0 104 17.5t105 70.5l67 -84q-57 -66 -133 -93.5t-145 -27.5q-82 0 -146.5 27.5t-109.5 75t-68.5 111t-23.5 134.5z" />
<glyph unicode="&#xaa;" horiz-adv-x="874" d="M133 889q0 135 84 218t219 83q47 0 92 -12.5t80 -40.5v45h125v-582h-123v51q-37 -33 -82 -47t-92 -14q-66 0 -121 21.5t-96 60.5t-63.5 94t-22.5 123zM262 891q0 -86 47 -136t131 -50q76 0 125 51t49 131q0 90 -42 140t-132 50q-84 0 -131 -51t-47 -135z" />
<glyph unicode="&#xab;" horiz-adv-x="1138" d="M59 557l318 381h225l-315 -381l315 -381h-225zM498 557l315 381h231l-317 -381l317 -381h-231z" />
<glyph unicode="&#xac;" horiz-adv-x="1206" d="M100 625v172h1010v-172h-1010z" />
<glyph unicode="&#xad;" horiz-adv-x="974" d="M145 498v172h682v-172h-682z" />
<glyph unicode="&#xae;" horiz-adv-x="1323" d="M59 909q0 131 43 239.5t121 186.5t189.5 122t249.5 44q137 0 247.5 -44t189.5 -122t122 -186.5t43 -239.5q0 -129 -43 -238.5t-122 -187t-189.5 -122t-247.5 -44.5t-249 44.5t-190 122t-121 187t-43 238.5zM193 909q0 -104 32.5 -189t93 -146.5t147.5 -94.5t196 -33 t195.5 34t147 94.5t93 145.5t32.5 189t-32.5 189.5t-93 147t-147 94t-195.5 32.5t-196 -32.5t-147.5 -94t-93 -146.5t-32.5 -190zM432 588v526q0 37 15.5 65.5t40 48t56 30t64.5 10.5h60q47 0 90 -13.5t76.5 -39t53 -65.5t19.5 -91q0 -68 -34.5 -118t-94.5 -77l176 -276 h-137q-27 41 -51 82q-23 35 -47.5 74.5t-42.5 70.5q-14 23 -23.5 30t-31.5 7h-68v-264h-121zM553 952h109q59 0 90.5 27t31.5 78q0 53 -33.5 79.5t-80.5 26.5l-58 2q-59 0 -59 -51v-162z" />
<glyph unicode="&#xaf;" horiz-adv-x="737" d="M127 1094v98h483v-98h-483z" />
<glyph unicode="&#xb0;" horiz-adv-x="655" d="M102 1374q0 47 17.5 88t48.5 72t72 48t88 17t88 -17t71.5 -48t48 -72t17.5 -88t-17.5 -88t-48 -71.5t-71.5 -48t-88 -17.5t-88 17.5t-72 48t-48.5 71.5t-17.5 88zM217 1374q0 -47 32 -78.5t79 -31.5t78.5 31.5t31.5 78.5t-31.5 79t-78.5 32t-79 -32t-32 -79z" />
<glyph unicode="&#xb1;" horiz-adv-x="1001" d="M121 754v174h297v299h168v-299h299v-174h-299v-299h-168v299h-297zM123 205v170h762v-170h-762z" />
<glyph unicode="&#xb2;" horiz-adv-x="819" d="M158 1217q29 100 90 146t160 46q113 0 179 -52t66 -173q0 -86 -63.5 -150.5t-171.5 -122.5q-25 -12 -51.5 -33.5t-49 -48t-37 -59.5t-14.5 -65v-76h377v-88h-471l-2 135q0 111 61.5 188.5t153.5 126.5q25 14 55.5 32.5t56 42.5t43 52.5t17.5 61.5q0 76 -38.5 107.5 t-110.5 31.5q-66 0 -106 -32t-58 -103z" />
<glyph unicode="&#xb3;" horiz-adv-x="888" d="M152 772l102 29q12 -53 30.5 -88t41 -55.5t53.5 -27.5t67 -7q78 0 125 48t47 134q0 78 -51 123t-137 45h-65v96h59q68 0 102.5 42t34.5 97q0 53 -31.5 83t-85.5 30q-57 0 -89.5 -29.5t-55.5 -99.5l-100 33q35 104 96 150t149 46q45 0 86 -14t73 -42t51.5 -68t19.5 -91 q0 -102 -90 -168q68 -29 107.5 -90t39.5 -145q0 -66 -23.5 -118t-62.5 -88t-90.5 -55.5t-108.5 -19.5q-111 0 -185.5 53.5t-108.5 196.5z" />
<glyph unicode="&#xb4;" horiz-adv-x="626" d="M102 1137l222 301h231l-291 -301h-162z" />
<glyph unicode="&#xb5;" horiz-adv-x="1048" d="M133 -369v1160h70v-3h2v-469q0 -117 65 -192q70 -80 185 -80q51 0 96 16q10 6 20 11q20 10 36 23.5t32 29.5q66 72 66 192v469h73v-446q0 -156 -82 -254q-47 -55 -110 -80q-10 -6 -18.5 -11t-12.5 -17q-4 -8 -4 -17.5t2 -19.5q2 -23 23.5 -39.5t52 -26.5t67.5 -16t72 -8 v-54q-47 0 -97 9.5t-91 28t-69 46t-28 64.5v19t4 20h-32q-166 0 -252 118v-473h-70z" />
<glyph unicode="&#xb6;" horiz-adv-x="997" d="M102 924q0 70 22.5 129t64.5 101t98.5 65.5t124.5 23.5h219q90 0 137 -51t47 -135v-1163h-137v1165q0 23 -9.5 35t-37.5 16h-70v-1216h-137v710q-66 2 -123 22.5t-102 60.5t-71 98.5t-26 138.5z" />
<glyph unicode="&#xb7;" horiz-adv-x="448" d="M106 588q0 55 32 86t87 31q57 0 87 -31t30 -86q0 -53 -30 -86t-87 -33t-88 33t-31 86z" />
<glyph unicode="&#xb8;" horiz-adv-x="708" d="M88 -403l31 106q74 -33 122 -39t76 -4q43 0 70 22.5t27 49.5q0 31 -23.5 49t-54.5 18q-23 0 -55.5 -1t-71.5 -17l63 285l134 -7l-33 -155q78 2 132 -42t54 -122q0 -53 -22.5 -91t-58.5 -62.5t-79 -36t-84 -11.5q-47 0 -101 11.5t-126 46.5z" />
<glyph unicode="&#xb9;" horiz-adv-x="503" d="M162 1196v90l88 60q45 31 69.5 18.5t24.5 -68.5v-759h-80v727z" />
<glyph unicode="&#xba;" horiz-adv-x="743" d="M76 893q0 63 21.5 117.5t61.5 93.5t94 61.5t120 22.5q135 0 215 -81t80 -214q0 -66 -21.5 -120t-60.5 -94t-93 -61.5t-120 -21.5t-120 22.5t-94 61.5t-61.5 93t-21.5 120zM203 895q0 -78 46 -129t124 -51t124 51t46 129t-46 129t-124 51q-76 0 -123 -52t-47 -128z" />
<glyph unicode="&#xbb;" horiz-adv-x="1138" d="M94 176l318 381l-318 381h232l315 -381l-315 -381h-232zM535 176l317 381l-317 381h225l319 -381l-319 -381h-225z" />
<glyph unicode="&#xbc;" horiz-adv-x="1650" d="M162 1196v90l88 60q45 31 69.5 18.5t24.5 -68.5v-759h-80v727zM211 -25l944 1448h86l-944 -1448h-86zM891 299q0 20 7 35.5t17 32.5l365 503h96v-551h113v-92h-113v-227h-98v227h-287q-41 0 -70.5 16.5t-29.5 55.5zM1001 319h3h274v386z" />
<glyph unicode="&#xbd;" horiz-adv-x="1662" d="M162 1196v90l88 60q45 31 69.5 18.5t24.5 -68.5v-759h-80v727zM211 -25l944 1448h86l-944 -1448h-86zM1004 676q29 100 90 146t159 46q113 0 179.5 -52t66.5 -173q0 -86 -63.5 -150.5t-171.5 -121.5q-25 -12 -51.5 -34t-49 -48.5t-37 -59t-14.5 -65.5v-76h379v-88h-473 l-2 135q0 111 61.5 188.5t153.5 127.5q25 14 55.5 32.5t56 42t43 52t17.5 61.5q0 76 -39 107.5t-111 31.5q-66 0 -105.5 -31.5t-57.5 -103.5z" />
<glyph unicode="&#xbe;" horiz-adv-x="1718" d="M152 772l102 29q12 -53 30.5 -88t41 -55.5t53.5 -27.5t67 -7q78 0 125 48t47 134q0 78 -51 123t-137 45h-65v96h59q68 0 102.5 42t34.5 97q0 53 -31.5 83t-85.5 30q-57 0 -89.5 -29.5t-55.5 -99.5l-100 33q35 104 96 150t149 46q45 0 86 -14t73 -42t51.5 -68t19.5 -91 q0 -102 -90 -168q68 -29 107.5 -90t39.5 -145q0 -66 -23.5 -118t-62.5 -88t-90.5 -55.5t-108.5 -19.5q-111 0 -185.5 53.5t-108.5 196.5zM403 -25l943 1448h84l-945 -1448h-82zM961 299q0 20 7 35.5t17 32.5l367 503h96v-551h113v-92h-113v-227h-100v227h-285 q-41 0 -71.5 16.5t-30.5 55.5zM1069 319h4h275v386z" />
<glyph unicode="&#xbf;" horiz-adv-x="927" d="M51 244q0 70 20.5 123t53.5 99t74 89t82 92t68.5 104.5t27.5 131.5v141h192v-137q0 -66 -14 -120t-36.5 -100t-51.5 -85t-59 -72q-25 -29 -53.5 -58.5t-53.5 -63.5t-40 -69.5t-15 -76.5q0 -31 10 -58.5t33.5 -48t61.5 -32t95 -11.5q86 0 147.5 30t108.5 118l172 -74 q-39 -80 -90 -129t-108.5 -77t-117.5 -37t-116 -9q-184 0 -287.5 86t-103.5 244zM348 1292q0 51 30 86t89 35q57 0 91 -33.5t34 -87.5q0 -57 -35 -87.5t-90 -30.5q-59 0 -89 32.5t-30 85.5z" />
<glyph unicode="&#xc0;" horiz-adv-x="1310" d="M18 0l451 1294q10 27 24.5 53.5t36 47t52 34t71.5 13.5q82 0 125 -46t62 -102l448 -1294h-209l-172 510h-510l-172 -510h-207zM346 1882h232l221 -301h-162zM461 692h381l-189 555z" />
<glyph unicode="&#xc1;" horiz-adv-x="1310" d="M18 0l451 1294q10 27 24.5 53.5t36 47t52 34t71.5 13.5q82 0 125 -46t62 -102l448 -1294h-209l-172 510h-510l-172 -510h-207zM461 692h381l-189 555zM483 1581l222 301h231l-291 -301h-162z" />
<glyph unicode="&#xc2;" horiz-adv-x="1310" d="M18 0l451 1294q10 27 24.5 53.5t36 47t52 34t71.5 13.5q82 0 125 -46t62 -102l448 -1294h-209l-172 510h-510l-172 -510h-207zM303 1579l236 256q51 53 117.5 51t115.5 -55l234 -252h-170l-183 166l-182 -166h-168zM461 692h381l-189 555z" />
<glyph unicode="&#xc3;" horiz-adv-x="1310" d="M18 0l451 1294q10 27 24.5 53.5t36 47t52 34t71.5 13.5q82 0 125 -46t62 -102l448 -1294h-209l-172 510h-510l-172 -510h-207zM315 1651q41 55 83 86.5t104 42.5q59 10 102 -4.5t78 -34t66.5 -34.5t66.5 -7q23 4 58.5 22.5t66.5 63.5l76 -82q-37 -55 -86.5 -90 t-104.5 -41q-66 -8 -107.5 5t-73.5 31.5t-60.5 33t-67.5 8.5q-23 -4 -57.5 -20.5t-63.5 -59.5zM461 692h381l-189 555z" />
<glyph unicode="&#xc4;" horiz-adv-x="1310" d="M18 0l451 1294q10 27 24.5 53.5t36 47t52 34t71.5 13.5q82 0 125 -46t62 -102l448 -1294h-209l-172 510h-510l-172 -510h-207zM338 1686q0 113 115 112q110 1 110 -112q0 -117 -110 -117q-115 0 -115 117zM461 692h381l-189 555zM745 1686q0 113 115 112q111 1 111 -112 q0 -117 -111 -117q-115 0 -115 117z" />
<glyph unicode="&#xc5;" horiz-adv-x="1310" d="M18 0l451 1294q10 27 24.5 53.5t36 47t52 34t71.5 13.5q82 0 125 -46t62 -102l448 -1294h-209l-172 510h-510l-172 -510h-207zM430 1774q0 47 17.5 88t48 71.5t71.5 48t88 17.5t88 -17.5t72 -48t48.5 -71.5t17.5 -88t-17.5 -88t-48.5 -72t-72 -48.5t-88 -17.5t-88 17.5 t-71.5 48.5t-48 71.5t-17.5 88.5zM461 692h381l-189 555zM545 1774q0 -47 31.5 -79t78.5 -32t79 31.5t32 79.5q0 47 -32 78.5t-79 31.5t-78.5 -31.5t-31.5 -78.5z" />
<glyph unicode="&#xc6;" horiz-adv-x="1898" d="M-27 0l854 1276q23 33 45.5 63.5t50 52t64.5 35t90 13.5h760v-180h-692v-447h612v-174h-612v-434q0 -10 3 -15.5t23 -9.5h666v-180h-663q-47 0 -88.5 15.5t-73 43t-50 65.5t-18.5 85v426h-323l-426 -635h-222zM737 813h207v313q-25 -37 -52.5 -78.5t-56 -84.5t-54 -82 t-44.5 -68z" />
<glyph unicode="&#xc7;" horiz-adv-x="1441" d="M137 707q0 158 49.5 294t141.5 236t223 157.5t295 57.5q145 0 278 -52t260 -192l-135 -149q-96 104 -198.5 154.5t-210.5 50.5q-115 0 -206 -41t-153.5 -115t-96.5 -175.5t-34 -221.5q0 -121 34 -222.5t98.5 -175t156.5 -115.5t209 -42q109 0 224.5 45t207.5 151 l125 -157q-117 -117 -253 -167.5t-265 -54.5l-15 -75q78 2 132.5 -42t54.5 -122q0 -53 -22.5 -91t-58.5 -62.5t-79 -36t-84 -11.5q-49 0 -102.5 11.5t-124.5 45.5l30 107q74 -33 122 -39t77 -4q43 0 69.5 22.5t26.5 49.5q0 31 -22.5 50t-52.5 19q-23 0 -56.5 -2t-72.5 -18 l43 198q-145 14 -259 77t-193 160t-121 224t-42 273z" />
<glyph unicode="&#xc8;" horiz-adv-x="1144" d="M174 0v1108q0 23 1 43t5 37q20 100 94 167.5t185 80.5q10 2 35.5 4t54.5 2h467v-180h-486q-158 0 -157 -162v-262h571v-181h-571v-477h680v-180h-879zM319 1882h232l221 -301h-162z" />
<glyph unicode="&#xc9;" horiz-adv-x="1144" d="M174 0v1108q0 23 1 43t5 37q20 100 94 167.5t185 80.5q10 2 35.5 4t54.5 2h467v-180h-486q-158 0 -157 -162v-262h571v-181h-571v-477h680v-180h-879zM446 1581l222 301h231l-291 -301h-162z" />
<glyph unicode="&#xca;" horiz-adv-x="1144" d="M174 0v1108q0 23 1 43t5 37q20 100 94 167.5t185 80.5q10 2 35.5 4t54.5 2h467v-180h-486q-158 0 -157 -162v-262h571v-181h-571v-477h680v-180h-879zM262 1579l236 256q51 53 117.5 51t115.5 -55l234 -252h-170l-183 166l-182 -166h-168z" />
<glyph unicode="&#xcb;" horiz-adv-x="1144" d="M174 0v1108q0 23 1 43t5 37q20 100 94 167.5t185 80.5q10 2 35.5 4t54.5 2h467v-180h-486q-158 0 -157 -162v-262h571v-181h-571v-477h680v-180h-879zM299 1696q0 113 115 112q110 1 110 -112q0 -117 -110 -117q-115 0 -115 117zM707 1696q0 113 114 112q111 1 111 -112 q0 -117 -111 -117q-115 0 -114 117z" />
<glyph unicode="&#xcc;" horiz-adv-x="587" d="M-23 1882h232l221 -301h-162zM190 0v1442h205v-1442h-205z" />
<glyph unicode="&#xcd;" horiz-adv-x="595" d="M143 1581l222 301h231l-291 -301h-162zM197 0v1442h204v-1442h-204z" />
<glyph unicode="&#xce;" horiz-adv-x="593" d="M-57 1579l235 256q51 53 117.5 51t116.5 -55l233 -252h-170l-182 166l-182 -166h-168zM190 0v1442h205v-1442h-205z" />
<glyph unicode="&#xcf;" horiz-adv-x="583" d="M-25 1696q0 113 115 112q111 1 111 -112q0 -117 -111 -117q-115 0 -115 117zM188 0v1442h207v-1442h-207zM383 1696q0 113 115 112q110 1 110 -112q0 -117 -110 -117q-115 0 -115 117z" />
<glyph unicode="&#xd0;" horiz-adv-x="1226" d="M133 582v67h96v410q0 63 39 100q39 39 107 39h198q244 0 390 -182q133 -170 133 -422q0 -258 -117 -414q-131 -178 -377 -178h-225q-49 0 -94 33q-51 35 -52 104l-2 443h-96zM303 1059l2 -410h363v-67h-363v-443q0 -57 64 -67l229 -2q111 -2 190.5 40t135.5 119 q94 138 94 365q0 117 -28.5 208t-82.5 163q-123 164 -338 163h-202q-63 -12 -64 -69z" />
<glyph unicode="&#xd1;" horiz-adv-x="1497" d="M184 0v1278q0 72 43 124t127 52q78 0 126 -44t79 -103l559 -1096v1233h195v-1280q0 -78 -46 -128t-124 -50q-127 0 -185 110q-147 287 -288.5 570.5t-290.5 570.5v-1237h-195zM395 1657q41 55 83 87t104 42q59 10 102 -4.5t78 -33.5t66.5 -34.5t66.5 -7.5q23 4 58.5 22.5 t66.5 63.5l78 -88q-37 -55 -86.5 -90t-104.5 -41q-66 -8 -107.5 5t-73.5 31.5t-60.5 33t-67.5 8.5q-23 -4 -57.5 -20.5t-63.5 -59.5z" />
<glyph unicode="&#xd2;" horiz-adv-x="1523" d="M92 719q0 147 40 282.5t123 236.5t210 161.5t299 60.5q166 0 291 -60.5t209 -161.5t126 -236.5t42 -282.5t-42 -281.5t-126 -238t-208 -164t-290 -60.5q-170 0 -296 60.5t-210 163t-126 237.5t-42 283zM297 721q0 -117 27.5 -220.5t86 -180t146.5 -120.5t209 -44 q119 0 205 44t143 120.5t85 180t28 220.5q0 119 -30 220t-88 177t-144 119t-201 43q-121 0 -208 -44t-145.5 -119t-86 -177t-27.5 -219zM504 1882h231l221 -301h-161z" />
<glyph unicode="&#xd3;" horiz-adv-x="1523" d="M92 719q0 147 40 282.5t123 236.5t210 161.5t299 60.5q166 0 291 -60.5t209 -161.5t126 -236.5t42 -282.5t-42 -281.5t-126 -238t-208 -164t-290 -60.5q-170 0 -296 60.5t-210 163t-126 237.5t-42 283zM297 721q0 -117 27.5 -220.5t86 -180t146.5 -120.5t209 -44 q119 0 205 44t143 120.5t85 180t28 220.5q0 119 -30 220t-88 177t-144 119t-201 43q-121 0 -208 -44t-145.5 -119t-86 -177t-27.5 -219zM612 1581l222 301h231l-291 -301h-162z" />
<glyph unicode="&#xd4;" horiz-adv-x="1523" d="M92 719q0 147 40 282.5t123 236.5t210 161.5t299 60.5q166 0 291 -60.5t209 -161.5t126 -236.5t42 -282.5t-42 -281.5t-126 -238t-208 -164t-290 -60.5q-170 0 -296 60.5t-210 163t-126 237.5t-42 283zM297 721q0 -117 27.5 -220.5t86 -180t146.5 -120.5t209 -44 q119 0 205 44t143 120.5t85 180t28 220.5q0 119 -30 220t-88 177t-144 119t-201 43q-121 0 -208 -44t-145.5 -119t-86 -177t-27.5 -219zM410 1579l235 256q51 53 117.5 51t116.5 -55l233 -252h-170l-182 166l-182 -166h-168z" />
<glyph unicode="&#xd5;" horiz-adv-x="1523" d="M92 719q0 147 40 282.5t123 236.5t210 161.5t299 60.5q166 0 291 -60.5t209 -161.5t126 -236.5t42 -282.5t-42 -281.5t-126 -238t-208 -164t-290 -60.5q-170 0 -296 60.5t-210 163t-126 237.5t-42 283zM297 721q0 -117 27.5 -220.5t86 -180t146.5 -120.5t209 -44 q119 0 205 44t143 120.5t85 180t28 220.5q0 119 -30 220t-88 177t-144 119t-201 43q-121 0 -208 -44t-145.5 -119t-86 -177t-27.5 -219zM428 1651q41 55 83 86.5t103 42.5q59 10 102.5 -4.5t78 -34t66.5 -34.5t67 -7q23 4 58.5 22.5t66.5 63.5l75 -82q-37 -55 -86 -90 t-104 -41q-66 -8 -108 5t-73.5 31.5t-60 33t-67.5 8.5q-23 -4 -57.5 -20.5t-63.5 -59.5z" />
<glyph unicode="&#xd6;" horiz-adv-x="1523" d="M92 719q0 147 40 282.5t123 236.5t210 161.5t299 60.5q166 0 291 -60.5t209 -161.5t126 -236.5t42 -282.5t-42 -281.5t-126 -238t-208 -164t-290 -60.5q-170 0 -296 60.5t-210 163t-126 237.5t-42 283zM297 721q0 -117 27.5 -220.5t86 -180t146.5 -120.5t209 -44 q119 0 205 44t143 120.5t85 180t28 220.5q0 119 -30 220t-88 177t-144 119t-201 43q-121 0 -208 -44t-145.5 -119t-86 -177t-27.5 -219zM442 1686q0 113 115 112q111 1 111 -112q0 -117 -111 -117q-115 0 -115 117zM850 1686q0 113 115 112q110 1 110 -112q0 -117 -110 -117 q-115 0 -115 117z" />
<glyph unicode="&#xd7;" horiz-adv-x="1064" d="M76 852l53 53l399 -401l402 401l53 -53l-399 -401l403 -404l-53 -55l-404 405l-401 -401l-51 55l399 402z" />
<glyph unicode="&#xd8;" horiz-adv-x="1544" d="M92 719q0 147 40 282.5t124 236.5t213 161.5t305 60.5q166 0 295 -59l100 162h220l-166 -263q117 -104 173 -255.5t56 -325.5q0 -147 -43 -281.5t-127 -238t-211 -164t-295 -60.5q-98 0 -181 20.5t-155 57.5l-110 -176h-219l182 289q-102 104 -151.5 247.5t-49.5 305.5z M295 721q0 -113 25.5 -211t78.5 -174l570 905q-86 37 -195 37q-125 0 -215 -43t-148.5 -119t-87 -177t-28.5 -218zM541 213q100 -53 235 -53q123 0 212 44t146.5 119.5t85 178t27.5 219.5q0 123 -31.5 228.5t-97.5 180.5z" />
<glyph unicode="&#xd9;" horiz-adv-x="1431" d="M174 487v955h207v-948q0 -37 2 -68t6 -47q10 -45 36 -85t71 -69.5t110.5 -47t153.5 -17.5q63 0 144 12t140 31v1239h205v-1374q-123 -47 -250 -69t-258 -22q-211 0 -352 81t-190 233q-14 41 -19.5 90t-5.5 106zM434 1882h232l221 -301h-162z" />
<glyph unicode="&#xda;" horiz-adv-x="1431" d="M174 487v955h207v-948q0 -37 2 -68t6 -47q10 -45 36 -85t71 -69.5t110.5 -47t153.5 -17.5q63 0 144 12t140 31v1239h205v-1374q-123 -47 -250 -69t-258 -22q-211 0 -352 81t-190 233q-14 41 -19.5 90t-5.5 106zM528 1581l222 301h231l-291 -301h-162z" />
<glyph unicode="&#xdb;" horiz-adv-x="1431" d="M174 487v955h207v-948q0 -37 2 -68t6 -47q10 -45 36 -85t71 -69.5t110.5 -47t153.5 -17.5q63 0 144 12t140 31v1239h205v-1374q-123 -47 -250 -69t-258 -22q-211 0 -352 81t-190 233q-14 41 -19.5 90t-5.5 106zM356 1579l236 256q51 53 117.5 51t115.5 -55l234 -252h-170 l-182 166l-183 -166h-168z" />
<glyph unicode="&#xdc;" horiz-adv-x="1431" d="M174 487v955h207v-948q0 -37 2 -68t6 -47q10 -45 36 -85t71 -69.5t110.5 -47t153.5 -17.5q63 0 144 12t140 31v1239h205v-1374q-123 -47 -250 -69t-258 -22q-211 0 -352 81t-190 233q-14 41 -19.5 90t-5.5 106zM391 1686q0 113 115 112q110 1 110 -112q0 -117 -110 -117 q-115 0 -115 117zM799 1686q0 113 114 112q111 1 111 -112q0 -117 -111 -117q-115 0 -114 117z" />
<glyph unicode="&#xde;" horiz-adv-x="999" d="M133 0v641v549h72v-344q8 10 15 19t18 20q96 102 266 102q80 0 146.5 -24.5t115.5 -77.5q102 -109 102 -267q0 -156 -102 -264q-102 -104 -262 -104q-166 0 -266 104q-18 16 -33 39v-393h-72zM205 616q0 -129 76 -210q76 -84 215 -84q131 0 211 84q77 83 77 210 q0 129 -77 213q-78 84 -211 84t-213 -84q-78 -80 -78 -213z" />
<glyph unicode="&#xdf;" horiz-adv-x="1128" d="M143 0v1001q0 100 23.5 185.5t75 145t130.5 93t189 33.5q168 0 267.5 -74.5t99.5 -226.5q0 -86 -42 -146.5t-91.5 -104.5t-91 -77.5t-41.5 -66.5q0 -10 5 -21.5t22.5 -26t50 -33.5t87.5 -48q147 -78 203.5 -180.5t56.5 -233.5q0 -70 -25.5 -141.5t-82.5 -129t-149.5 -93 t-223.5 -35.5h-170v180h185q137 0 201.5 64.5t64.5 152.5q0 80 -34 131t-85 88t-110.5 68t-108.5 71q-35 29 -65.5 69t-30.5 101q0 51 20.5 91.5t53 74t71.5 64.5t76 65q23 23 38 48.5t15 64.5q0 72 -47 104.5t-113 32.5q-70 0 -113.5 -21.5t-69.5 -62.5t-35 -98t-9 -131 v-977h-197z" />
<glyph unicode="&#xe0;" horiz-adv-x="1226" d="M84 477q0 106 35 200.5t101.5 165t163.5 111.5t220 41q92 0 170 -25.5t131 -78.5v86h174v-977h-172q-4 16 -9 33.5t-32 9.5q-63 -23 -128.5 -40t-141.5 -17q-117 0 -212 33.5t-161.5 98t-102.5 154.5t-36 205zM281 481q0 -147 84 -238t249 -91q74 0 144.5 20.5 t128.5 46.5v348q0 61 -21.5 109.5t-59.5 83.5t-88.5 53t-105.5 18q-84 0 -146.5 -26.5t-103 -74.5t-61 -111.5t-20.5 -137.5zM289 1438h231l221 -301h-161z" />
<glyph unicode="&#xe1;" horiz-adv-x="1226" d="M84 477q0 106 35 200.5t101.5 165t163.5 111.5t220 41q92 0 170 -25.5t131 -78.5v86h174v-977h-172q-4 16 -9 33.5t-32 9.5q-63 -23 -128.5 -40t-141.5 -17q-117 0 -212 33.5t-161.5 98t-102.5 154.5t-36 205zM281 481q0 -147 84 -238t249 -91q74 0 144.5 20.5 t128.5 46.5v348q0 61 -21.5 109.5t-59.5 83.5t-88.5 53t-105.5 18q-84 0 -146.5 -26.5t-103 -74.5t-61 -111.5t-20.5 -137.5zM449 1137l221 301h231l-291 -301h-161z" />
<glyph unicode="&#xe2;" horiz-adv-x="1226" d="M84 477q0 106 35 200.5t101.5 165t163.5 111.5t220 41q92 0 170 -25.5t131 -78.5v86h174v-977h-172q-4 16 -9 33.5t-32 9.5q-63 -23 -128.5 -40t-141.5 -17q-117 0 -212 33.5t-161.5 98t-102.5 154.5t-36 205zM260 1135l236 256q51 53 117.5 51t115.5 -56l234 -251h-170 l-183 165l-182 -165h-168zM281 481q0 -147 84 -238t249 -91q74 0 144.5 20.5t128.5 46.5v348q0 61 -21.5 109.5t-59.5 83.5t-88.5 53t-105.5 18q-84 0 -146.5 -26.5t-103 -74.5t-61 -111.5t-20.5 -137.5z" />
<glyph unicode="&#xe3;" horiz-adv-x="1226" d="M84 477q0 106 35 200.5t101.5 165t163.5 111.5t220 41q92 0 170 -25.5t131 -78.5v86h174v-977h-172q-4 16 -9 33.5t-32 9.5q-63 -23 -128.5 -40t-141.5 -17q-117 0 -212 33.5t-161.5 98t-102.5 154.5t-36 205zM274 1241q41 55 83 87t104 42q59 10 102 -4t78 -33.5 t66.5 -35t66.5 -7.5q23 4 58.5 22.5t66.5 63.5l76 -82q-37 -55 -86.5 -90t-104.5 -41q-66 -8 -107.5 5.5t-73.5 32t-60.5 32.5t-67.5 8q-23 -4 -57.5 -20.5t-63.5 -59.5zM281 481q0 -147 84 -238t249 -91q74 0 144.5 20.5t128.5 46.5v348q0 61 -21.5 109.5t-59.5 83.5 t-88.5 53t-105.5 18q-84 0 -146.5 -26.5t-103 -74.5t-61 -111.5t-20.5 -137.5z" />
<glyph unicode="&#xe4;" horiz-adv-x="1226" d="M84 477q0 106 35 200.5t101.5 165t163.5 111.5t220 41q92 0 170 -25.5t131 -78.5v86h174v-977h-172q-4 16 -9 33.5t-32 9.5q-63 -23 -128.5 -40t-141.5 -17q-117 0 -212 33.5t-161.5 98t-102.5 154.5t-36 205zM281 481q0 -147 84 -238t249 -91q74 0 144.5 20.5 t128.5 46.5v348q0 61 -21.5 109.5t-59.5 83.5t-88.5 53t-105.5 18q-84 0 -146.5 -26.5t-103 -74.5t-61 -111.5t-20.5 -137.5zM301 1272q0 113 115 112q110 1 110 -112q0 -117 -110 -117q-115 0 -115 117zM709 1272q0 113 114 112q111 1 111 -112q0 -117 -111 -117 q-115 0 -114 117z" />
<glyph unicode="&#xe5;" horiz-adv-x="1226" d="M84 477q0 106 35 200.5t101.5 165t163.5 111.5t220 41q92 0 170 -25.5t131 -78.5v86h174v-977h-172q-4 16 -9 33.5t-32 9.5q-63 -23 -128.5 -40t-141.5 -17q-117 0 -212 33.5t-161.5 98t-102.5 154.5t-36 205zM281 481q0 -147 84 -238t249 -91q74 0 144.5 20.5 t128.5 46.5v348q0 61 -21.5 109.5t-59.5 83.5t-88.5 53t-105.5 18q-84 0 -146.5 -26.5t-103 -74.5t-61 -111.5t-20.5 -137.5zM385 1374q0 47 17.5 88t48 72t71.5 48t88 17t88 -17t72 -48t48.5 -72t17.5 -88t-17.5 -88t-48.5 -71.5t-72 -48t-88 -17.5t-88 17.5t-71.5 48 t-48 71.5t-17.5 88zM500 1374q0 -47 31.5 -78.5t78.5 -31.5t79 31.5t32 78.5t-32 79t-79 32t-78.5 -32t-31.5 -79z" />
<glyph unicode="&#xe6;" horiz-adv-x="1925" d="M92 469q0 100 35 193.5t100.5 164t161.5 112.5t219 42q139 0 233.5 -44t149.5 -116q66 78 162 122t213 44q102 0 184 -33.5t141.5 -92t94.5 -138.5t43 -174q2 -16 2 -36.5v-39.5v-45h-754q10 -131 96.5 -200.5t223.5 -69.5q78 0 153.5 22.5t165.5 98.5l107 -132 q-100 -90 -200.5 -124.5t-231.5 -34.5q-193 0 -324 94v-84h-168q-4 14 -11 30.5t-34 6.5q-66 -23 -127 -37t-127 -14q-117 0 -210 34.5t-159.5 98t-102.5 153.5t-36 199zM285 471q0 -141 82 -227t241 -86q70 0 142.5 19.5t126.5 43.5v326q0 29 -2.5 53.5t-6.5 38.5 q-18 82 -83.5 127t-170.5 45q-82 0 -143 -26.5t-103 -72.5t-62.5 -108.5t-20.5 -132.5zM1081 588h545q-18 115 -87 172t-173 57q-106 0 -184 -56t-101 -173z" />
<glyph unicode="&#xe7;" horiz-adv-x="1087" d="M92 483q0 106 37 199.5t104.5 162t161.5 108.5t209 40q74 0 132.5 -10t109.5 -33.5t97 -60.5t97 -90l-143 -115q-76 78 -141.5 107.5t-151.5 29.5q-70 0 -127 -26.5t-97 -71.5t-61.5 -104.5t-21.5 -124.5q0 -168 86 -260.5t233 -92.5q78 0 154 32t160 106l114 -129 q-94 -98 -192 -136.5t-205 -42.5l-14 -71q78 2 132 -42t54 -122q0 -53 -22.5 -91t-58.5 -62.5t-79 -36t-84 -11.5q-47 0 -101 11.5t-126 45.5l31 107q74 -33 122 -39t77 -4q43 0 69.5 22.5t26.5 49.5q0 31 -23.5 49t-54.5 18q-23 0 -55.5 -1t-71.5 -17l45 200 q-100 14 -179 58.5t-132 111t-82 152.5t-29 184z" />
<glyph unicode="&#xe8;" horiz-adv-x="1124" d="M84 492q0 106 36 198t100.5 161t155.5 108.5t202 39.5q104 0 188 -32.5t145.5 -91t96 -140.5t41.5 -178q0 -2 1 -14.5t2 -30.5t1 -37.5v-38.5h-766q12 -135 91 -210.5t232 -75.5q90 0 165 21.5t159 74.5l80 -146q-55 -37 -102.5 -59.5t-95.5 -35.5t-100 -18t-116 -5 q-125 0 -221 38.5t-161.5 107.5t-99.5 162t-34 202zM289 1438h231l221 -301h-161zM293 592h553q-20 106 -82.5 175t-185.5 69q-117 0 -191 -70t-94 -174z" />
<glyph unicode="&#xe9;" horiz-adv-x="1124" d="M84 492q0 106 36 198t100.5 161t155.5 108.5t202 39.5q104 0 188 -32.5t145.5 -91t96 -140.5t41.5 -178q0 -2 1 -14.5t2 -30.5t1 -37.5v-38.5h-766q12 -135 91 -210.5t232 -75.5q90 0 165 21.5t159 74.5l80 -146q-55 -37 -102.5 -59.5t-95.5 -35.5t-100 -18t-116 -5 q-125 0 -221 38.5t-161.5 107.5t-99.5 162t-34 202zM293 592h553q-20 106 -82.5 175t-185.5 69q-117 0 -191 -70t-94 -174zM455 1137l221 301h231l-291 -301h-161z" />
<glyph unicode="&#xea;" horiz-adv-x="1124" d="M84 492q0 106 36 198t100.5 161t155.5 108.5t202 39.5q104 0 188 -32.5t145.5 -91t96 -140.5t41.5 -178q0 -2 1 -14.5t2 -30.5t1 -37.5v-38.5h-766q12 -135 91 -210.5t232 -75.5q90 0 165 21.5t159 74.5l80 -146q-55 -37 -102.5 -59.5t-95.5 -35.5t-100 -18t-116 -5 q-125 0 -221 38.5t-161.5 107.5t-99.5 162t-34 202zM233 1135l236 256q51 53 117.5 51t115.5 -56l234 -251h-168l-184 168l-185 -168h-166zM293 592h553q-20 106 -82.5 175t-185.5 69q-117 0 -191 -70t-94 -174z" />
<glyph unicode="&#xeb;" horiz-adv-x="1124" d="M84 492q0 106 36 198t100.5 161t155.5 108.5t202 39.5q104 0 188 -32.5t145.5 -91t96 -140.5t41.5 -178q0 -2 1 -14.5t2 -30.5t1 -37.5v-38.5h-766q12 -135 91 -210.5t232 -75.5q90 0 165 21.5t159 74.5l80 -146q-55 -37 -102.5 -59.5t-95.5 -35.5t-100 -18t-116 -5 q-125 0 -221 38.5t-161.5 107.5t-99.5 162t-34 202zM270 1272q0 113 113 112q113 1 113 -112q0 -117 -113 -117t-113 117zM293 592h553q-20 106 -82.5 175t-185.5 69q-117 0 -191 -70t-94 -174zM678 1272q0 113 113 112q112 1 112 -112q0 -117 -112 -117q-113 0 -113 117z " />
<glyph unicode="&#xec;" horiz-adv-x="516" d="M-51 1438h231l221 -301h-161zM168 0v975h194v-975h-194z" />
<glyph unicode="&#xed;" horiz-adv-x="516" d="M86 1137l221 301h232l-291 -301h-162zM168 0v975h194v-975h-194z" />
<glyph unicode="&#xee;" horiz-adv-x="540" d="M-80 1135l236 256q51 53 117.5 51t115.5 -56l234 -251h-170l-183 165l-182 -165h-168zM168 0v975h194v-975h-194z" />
<glyph unicode="&#xef;" horiz-adv-x="530" d="M-53 1272q0 113 114 112q111 1 111 -112q0 -117 -111 -117q-115 0 -114 117zM168 0v975h194v-975h-194zM354 1272q0 113 115 112q111 1 111 -112q0 -117 -111 -117q-115 0 -115 117z" />
<glyph unicode="&#xf0;" horiz-adv-x="1058" d="M133 395q0 174 113 291q111 117 284 117q180 0 291 -117q10 -10 18.5 -19.5t16.5 -19.5v332q-39 -25 -82 -35q-47 -8 -89 -2t-83 31l-16 12l-17 8q-29 14 -54.5 20.5t-51.5 2.5q-29 -6 -52.5 -23.5t-50.5 -52.5l-65 39q63 88 154 106q88 14 167 -30l19 -8l16 -11 q29 -16 54.5 -20t54.5 0q49 6 96 67v86h72v-841q0 -66 -27 -117t-82 -111q-113 -115 -289 -114q-176 0 -284 114q-113 115 -113 295zM207 397q0 -154 86 -247q86 -98 237 -99q145 0 238 101q88 100 88 245q0 147 -86 246q-88 96 -240 96q-154 0 -237 -96q-86 -94 -86 -246z " />
<glyph unicode="&#xf1;" horiz-adv-x="1138" d="M121 0v854q98 66 215 102.5t227 36.5q209 0 328 -93t119 -290v-610h-199v586q0 117 -60.5 176t-197.5 59q-66 0 -129.5 -18.5t-106.5 -42.5v-760h-196zM209 1241q41 55 83 87t103 42q59 10 102.5 -4t78 -33.5t66.5 -35t67 -7.5q23 4 58.5 22.5t66.5 63.5l75 -82 q-37 -55 -86 -90t-104 -41q-66 -8 -108 5.5t-73.5 32t-60 32.5t-67.5 8q-23 -4 -58 -20.5t-63 -59.5z" />
<glyph unicode="&#xf2;" d="M90 492q0 104 39 196t107.5 162t164 109.5t209.5 39.5q117 0 212.5 -38.5t165 -107.5t107.5 -162t38 -199q0 -109 -38 -201t-107.5 -161t-165 -107.5t-212.5 -38.5q-115 0 -210 39.5t-164.5 108.5t-107.5 162t-38 198zM287 494q0 -72 22.5 -133.5t63.5 -107.5 t101.5 -72.5t135.5 -26.5q74 0 133.5 25.5t102.5 70.5t66.5 107.5t23.5 136.5q0 68 -23.5 129t-66.5 107t-103.5 73.5t-132.5 27.5q-76 0 -135 -26.5t-101 -71.5t-64.5 -107.5t-22.5 -131.5zM299 1438h231l222 -301h-162z" />
<glyph unicode="&#xf3;" d="M90 492q0 104 39 196t107.5 162t164 109.5t209.5 39.5q117 0 212.5 -38.5t165 -107.5t107.5 -162t38 -199q0 -109 -38 -201t-107.5 -161t-165 -107.5t-212.5 -38.5q-115 0 -210 39.5t-164.5 108.5t-107.5 162t-38 198zM287 494q0 -72 22.5 -133.5t63.5 -107.5 t101.5 -72.5t135.5 -26.5q74 0 133.5 25.5t102.5 70.5t66.5 107.5t23.5 136.5q0 68 -23.5 129t-66.5 107t-103.5 73.5t-132.5 27.5q-76 0 -135 -26.5t-101 -71.5t-64.5 -107.5t-22.5 -131.5zM475 1137l221 301h232l-291 -301h-162z" />
<glyph unicode="&#xf4;" d="M90 492q0 104 39 196t107.5 162t164 109.5t209.5 39.5q117 0 212.5 -38.5t165 -107.5t107.5 -162t38 -199q0 -109 -38 -201t-107.5 -161t-165 -107.5t-212.5 -38.5q-115 0 -210 39.5t-164.5 108.5t-107.5 162t-38 198zM252 1135l235 256q51 53 118 51t116 -56l233 -251 h-170l-182 165l-182 -165h-168zM287 494q0 -72 22.5 -133.5t63.5 -107.5t101.5 -72.5t135.5 -26.5q74 0 133.5 25.5t102.5 70.5t66.5 107.5t23.5 136.5q0 68 -23.5 129t-66.5 107t-103.5 73.5t-132.5 27.5q-76 0 -135 -26.5t-101 -71.5t-64.5 -107.5t-22.5 -131.5z" />
<glyph unicode="&#xf5;" d="M90 492q0 104 39 196t107.5 162t164 109.5t209.5 39.5q117 0 212.5 -38.5t165 -107.5t107.5 -162t38 -199q0 -109 -38 -201t-107.5 -161t-165 -107.5t-212.5 -38.5q-115 0 -210 39.5t-164.5 108.5t-107.5 162t-38 198zM274 1241q41 55 83 87t104 42q59 10 102 -4 t78 -33.5t66.5 -35t66.5 -7.5q23 4 58.5 22.5t66.5 63.5l76 -82q-37 -55 -86.5 -90t-104.5 -41q-66 -8 -107.5 5.5t-73.5 32t-60.5 32.5t-67.5 8q-23 -4 -57.5 -20.5t-63.5 -59.5zM287 494q0 -72 22.5 -133.5t63.5 -107.5t101.5 -72.5t135.5 -26.5q74 0 133.5 25.5 t102.5 70.5t66.5 107.5t23.5 136.5q0 68 -23.5 129t-66.5 107t-103.5 73.5t-132.5 27.5q-76 0 -135 -26.5t-101 -71.5t-64.5 -107.5t-22.5 -131.5z" />
<glyph unicode="&#xf6;" d="M90 492q0 104 39 196t107.5 162t164 109.5t209.5 39.5q117 0 212.5 -38.5t165 -107.5t107.5 -162t38 -199q0 -109 -38 -201t-107.5 -161t-165 -107.5t-212.5 -38.5q-115 0 -210 39.5t-164.5 108.5t-107.5 162t-38 198zM287 494q0 -72 22.5 -133.5t63.5 -107.5 t101.5 -72.5t135.5 -26.5q74 0 133.5 25.5t102.5 70.5t66.5 107.5t23.5 136.5q0 68 -23.5 129t-66.5 107t-103.5 73.5t-132.5 27.5q-76 0 -135 -26.5t-101 -71.5t-64.5 -107.5t-22.5 -131.5zM289 1272q0 113 112 112q113 1 113 -112q0 -117 -113 -117t-112 117zM696 1272 q0 113 113 112q113 1 113 -112q0 -117 -113 -117t-113 117z" />
<glyph unicode="&#xf7;" horiz-adv-x="1206" d="M98 625v172h1010v-172h-1010zM492 401q0 113 112 113q111 0 111 -113q0 -115 -111 -114q-113 0 -112 114zM492 1018q0 113 112 112q111 1 111 -112q0 -115 -111 -115q-113 0 -112 115z" />
<glyph unicode="&#xf8;" horiz-adv-x="1212" d="M86 492q0 104 39 196t107.5 162t164 109.5t207.5 39.5q106 0 193 -30l80 127h180l-125 -199q92 -70 143 -174.5t51 -230.5q0 -109 -37.5 -201t-106.5 -161t-165 -107.5t-213 -38.5q-59 0 -113.5 11t-103.5 32l-94 -150h-180l145 232q-82 70 -127 168t-45 215zM283 494 q0 -66 18 -124.5t55 -103.5l346 551q-23 6 -47 10t-51 4q-74 0 -134 -26.5t-101 -71.5t-63.5 -107.5t-22.5 -131.5zM479 176q61 -23 125 -22q74 0 134.5 25.5t103.5 70.5t66.5 107.5t23.5 136.5q0 72 -25.5 134t-72.5 109z" />
<glyph unicode="&#xf9;" horiz-adv-x="1142" d="M119 375v602h196v-600q0 -49 12.5 -91t44 -73t87 -48.5t139.5 -17.5q39 0 99.5 9.5t107.5 23.5v797h194v-916q-96 -41 -201.5 -63.5t-211.5 -22.5q-240 0 -353.5 102.5t-113.5 297.5zM291 1438h231l221 -301h-161z" />
<glyph unicode="&#xfa;" horiz-adv-x="1142" d="M119 375v602h196v-600q0 -49 12.5 -91t44 -73t87 -48.5t139.5 -17.5q39 0 99.5 9.5t107.5 23.5v797h194v-916q-96 -41 -201.5 -63.5t-211.5 -22.5q-240 0 -353.5 102.5t-113.5 297.5zM434 1137l221 301h232l-291 -301h-162z" />
<glyph unicode="&#xfb;" horiz-adv-x="1142" d="M119 375v602h196v-600q0 -49 12.5 -91t44 -73t87 -48.5t139.5 -17.5q39 0 99.5 9.5t107.5 23.5v797h194v-916q-96 -41 -201.5 -63.5t-211.5 -22.5q-240 0 -353.5 102.5t-113.5 297.5zM219 1135l236 256q51 53 117.5 51t115.5 -56l234 -251h-170l-183 165l-182 -165h-168z " />
<glyph unicode="&#xfc;" horiz-adv-x="1142" d="M119 375v602h196v-600q0 -49 12.5 -91t44 -73t87 -48.5t139.5 -17.5q39 0 99.5 9.5t107.5 23.5v797h194v-916q-96 -41 -201.5 -63.5t-211.5 -22.5q-240 0 -353.5 102.5t-113.5 297.5zM248 1272q0 113 112 112q113 1 113 -112q0 -117 -113 -117t-112 117zM655 1272 q0 113 113 112q113 1 113 -112q0 -117 -113 -117t-113 117z" />
<glyph unicode="&#xfd;" horiz-adv-x="913" d="M133 -362l25 71q72 -51 147 -67q51 -12 94 -13q150 0 232 95q80 92 80 239v139q-84 -117 -250 -116q-156 0 -240 102q-80 94 -80 254v446h70v-469q0 -119 65 -192q68 -80 185 -80q115 0 184 80q66 76 66 192v469h71v-825q0 -182 -100 -291q-106 -113 -285 -112 q-139 0 -264 78zM311 920l178 247h103l-221 -247h-60z" />
<glyph unicode="&#xfe;" horiz-adv-x="1058" d="M133 -440v880v768h72v-563q8 12 17 22.5t20 20.5q111 115 286 115q178 0 287 -115q113 -119 113 -293q0 -90 -30 -162.5t-83 -130.5q-111 -117 -287 -116q-178 0 -288 116q-10 10 -18.5 19.5t-16.5 19.5v-581h-72zM205 393q0 -150 86 -248q82 -96 237 -96q152 0 240 96 q86 98 86 248q0 147 -86 246q-90 98 -240 98q-147 0 -235 -100q-88 -96 -88 -244z" />
<glyph unicode="&#xff;" horiz-adv-x="1234" d="M143 395v582h193v-576q0 -53 14.5 -98t45 -80t80.5 -54t122 -19q59 0 131 12t139 41v774h193v-989q0 -233 -134 -361.5t-378 -128.5q-88 0 -186.5 19.5t-186.5 62.5l51 166q86 -41 166 -57.5t154 -16.5q150 0 235.5 76t85.5 229v56q-121 -51 -278 -51q-207 0 -327 103 t-120 310zM291 1272q0 113 115 112q110 1 110 -112q0 -117 -110 -117q-115 0 -115 117zM698 1272q0 113 115 112q111 1 111 -112q0 -117 -111 -117q-115 0 -115 117z" />
<glyph unicode="&#x152;" horiz-adv-x="1837" d="M106 719q0 147 42 279t128 232.5t216.5 159t304.5 58.5q29 0 55.5 -2t54.5 -4l4 -4l2 -4l9 10l92 -2h745v-182h-665v-404h594v-186h-594v-484h704v-188h-870q-31 -4 -61.5 -7t-65.5 -3q-172 0 -302 59t-217 159.5t-131.5 232.5t-44.5 280zM315 721q0 -119 29 -221.5 t88.5 -178t153.5 -118.5t223 -43q25 0 43 1t39 5v1106q-20 2 -41 3t-45 1q-129 0 -222.5 -42t-152.5 -117t-87 -176t-28 -220z" />
<glyph unicode="&#x153;" horiz-adv-x="1814" d="M90 487q0 106 40 198.5t109.5 161t166 107.5t210.5 39q184 0 320 -94q63 47 142 71.5t169 24.5q106 0 190.5 -33.5t146 -92t97 -140.5t45.5 -176q2 -16 3.5 -35.5t3.5 -40.5q2 -23 4 -47h-791q18 -129 104.5 -200.5t229.5 -71.5q82 0 161 29.5t183 93.5l90 -152 q-121 -74 -222 -107.5t-222 -33.5q-199 0 -330 92q-66 -47 -148.5 -72.5t-175.5 -25.5q-115 0 -211 38.5t-166.5 107.5t-109.5 161t-39 198zM287 489q0 -72 23.5 -133t66.5 -106t103.5 -69.5t135.5 -24.5q111 0 195 61q-35 59 -52.5 130t-17.5 149q0 76 17.5 142.5 t50.5 123.5q-84 61 -193 61q-74 0 -135 -25.5t-104 -69.5t-66.5 -105.5t-23.5 -133.5zM954 602h562q-27 106 -92.5 163.5t-176.5 57.5t-187.5 -58t-105.5 -163z" />
<glyph unicode="&#x178;" horiz-adv-x="1157" d="M6 1442h227l353 -613l354 613h225l-420 -717q-16 -29 -37.5 -74t-21.5 -86v-565h-201v565q0 37 -19.5 79t-41.5 81zM268 1686q0 113 113 112q113 1 113 -112q0 -117 -113 -117t-113 117zM676 1686q0 113 112 112q113 1 113 -112q0 -117 -113 -117t-112 117z" />
<glyph unicode="&#x2c6;" horiz-adv-x="798" d="M49 1135l236 256q49 53 116.5 51t116.5 -56l234 -251h-170l-183 165l-184 -165h-166z" />
<glyph unicode="&#x2dc;" horiz-adv-x="905" d="M102 1241q41 55 83 87t104 42q59 10 102 -4t78 -33.5t66.5 -35t66.5 -7.5q23 4 58.5 22.5t66.5 63.5l76 -82q-37 -55 -86.5 -90t-104.5 -41q-66 -8 -107.5 5.5t-73.5 32t-60.5 32.5t-67.5 8q-23 -4 -57.5 -20.5t-63.5 -59.5z" />
<glyph unicode="&#x2000;" horiz-adv-x="999" />
<glyph unicode="&#x2001;" horiz-adv-x="1999" />
<glyph unicode="&#x2002;" horiz-adv-x="999" />
<glyph unicode="&#x2003;" horiz-adv-x="1999" />
<glyph unicode="&#x2004;" horiz-adv-x="666" />
<glyph unicode="&#x2005;" horiz-adv-x="499" />
<glyph unicode="&#x2006;" horiz-adv-x="333" />
<glyph unicode="&#x2007;" horiz-adv-x="333" />
<glyph unicode="&#x2008;" horiz-adv-x="249" />
<glyph unicode="&#x2009;" horiz-adv-x="399" />
<glyph unicode="&#x200a;" horiz-adv-x="111" />
<glyph unicode="&#x2010;" horiz-adv-x="974" d="M145 498v172h682v-172h-682z" />
<glyph unicode="&#x2011;" horiz-adv-x="974" d="M145 498v172h682v-172h-682z" />
<glyph unicode="&#x2012;" horiz-adv-x="974" d="M145 498v172h682v-172h-682z" />
<glyph unicode="&#x2013;" horiz-adv-x="1120" d="M35 469v172h1048v-172h-1048z" />
<glyph unicode="&#x2014;" horiz-adv-x="1736" d="M39 469v172h1659v-172h-1659z" />
<glyph unicode="&#x2018;" horiz-adv-x="415" d="M86 1133q0 41 14.5 88t39 92t55 87t61.5 75l68 -31q-35 -55 -58.5 -107.5t-34.5 -111.5q47 -10 71 -41t24 -68q0 -66 -35 -93.5t-84 -27.5q-121 0 -121 138z" />
<glyph unicode="&#x2019;" horiz-adv-x="405" d="M86 1354q0 66 35 93.5t84 27.5q121 0 121 -138q0 -41 -14.5 -88t-39 -92t-55.5 -87t-61 -75l-68 31q35 55 59.5 108.5t32.5 110.5q-47 10 -70.5 41t-23.5 68z" />
<glyph unicode="&#x201a;" horiz-adv-x="405" d="M88 98q0 66 35 93.5t84 27.5q121 0 121 -137q0 -41 -14.5 -88t-39 -92t-55.5 -87t-61 -75l-68 31q35 55 59.5 107t32.5 112q-47 10 -70.5 40.5t-23.5 67.5z" />
<glyph unicode="&#x201c;" horiz-adv-x="770" d="M82 1133q0 41 14.5 88t39 93t55 88t61.5 75l67 -33q-35 -55 -58 -107.5t-34 -111.5q47 -10 71 -41t24 -68q0 -66 -35 -93.5t-84 -27.5q-121 0 -121 138zM444 1133q0 41 14.5 88t39 93t55.5 88t61 75l68 -33q-35 -55 -58.5 -107.5t-33.5 -111.5q47 -10 70.5 -41t23.5 -68 q0 -66 -35 -93.5t-84 -27.5q-121 0 -121 138z" />
<glyph unicode="&#x201d;" horiz-adv-x="765" d="M88 1354q0 66 35 94.5t84 28.5q59 0 90 -37t31 -103q0 -41 -14.5 -87t-39 -92t-55.5 -88t-61 -75l-68 31q35 55 59.5 108.5t32.5 110.5q-47 10 -70.5 41t-23.5 68zM451 1354q0 66 34.5 94.5t83.5 28.5q59 0 90 -37t31 -103q0 -41 -14 -87t-39 -92t-55.5 -88t-61.5 -75 l-67 31q35 55 59.5 108.5t32.5 110.5q-47 10 -70.5 41t-23.5 68z" />
<glyph unicode="&#x201e;" horiz-adv-x="763" d="M88 98q0 66 35 93.5t84 27.5q121 0 121 -137q0 -41 -14.5 -88t-39 -92t-55.5 -87t-61 -75l-68 31q35 55 59.5 107t32.5 112q-47 10 -70.5 40.5t-23.5 67.5zM451 98q0 66 34.5 93.5t83.5 27.5q121 0 121 -137q0 -41 -14 -88t-39 -92t-55.5 -87t-61.5 -75l-67 31 q35 55 59.5 107t32.5 112q-47 10 -70.5 40.5t-23.5 67.5z" />
<glyph unicode="&#x2022;" horiz-adv-x="714" d="M133 621q0 121 52.5 173t172.5 52q117 0 171.5 -54.5t54.5 -170.5q0 -119 -55.5 -171.5t-172.5 -52.5q-119 0 -171 52.5t-52 171.5z" />
<glyph unicode="&#x2026;" horiz-adv-x="1271" d="M106 102q0 55 32 85t87 30q117 0 117 -115q0 -53 -30 -85.5t-87 -32.5t-88 31.5t-31 86.5zM516 102q0 55 32 85t87 30q117 0 117 -115q0 -53 -30 -85.5t-87 -32.5t-88 31.5t-31 86.5zM926 102q0 55 31.5 85t86.5 30q117 0 117 -115q0 -53 -30 -85.5t-87 -32.5t-87.5 31.5 t-30.5 86.5z" />
<glyph unicode="&#x202f;" horiz-adv-x="399" />
<glyph unicode="&#x2039;" horiz-adv-x="557" d="M127 399l188 260h129l-186 -260l186 -260h-129z" />
<glyph unicode="&#x203a;" horiz-adv-x="557" d="M113 139l186 260l-186 260h129l188 -260l-188 -260h-129z" />
<glyph unicode="&#x205f;" horiz-adv-x="499" />
<glyph unicode="&#x20ac;" horiz-adv-x="1390" d="M27 397l53 158h145v29v26.5t2 26.5h-118l53 156h96q31 92 87 165.5t132 126t168 80t195 27.5q125 0 240.5 -39t236.5 -154l-117 -127q-92 86 -179 117t-179 31q-133 0 -230.5 -58.5t-154.5 -168.5h651l-53 -156h-641v-51v-31h614l-53 -158h-529q49 -117 152.5 -183.5 t243.5 -66.5q84 0 183 36t185 122l113 -125q-111 -111 -235.5 -155.5t-245.5 -44.5q-270 0 -443 172q-53 53 -92 114.5t-57 130.5h-223z" />
<glyph unicode="&#x2122;" horiz-adv-x="1701" d="M104 1333v109h580v-109h-229v-614h-123v614h-228zM784 717v641q0 39 23.5 62.5t56.5 28.5t67 -11.5t54 -59.5l158 -338l155 338q20 43 54 59.5t67 11.5t56.5 -28.5t23.5 -62.5v-641h-117v569l-192 -412h-94l-195 412v-569h-117z" />
<glyph unicode="&#x25fc;" horiz-adv-x="972" d="M0 0v973h973v-973h-973z" />
<glyph unicode="&#xfb01;" horiz-adv-x="1243" d="M156 0v1051q0 80 23.5 147.5t69.5 117.5t113.5 78.5t155.5 28.5q57 0 117.5 -9t150.5 -52l-53 -164q-55 27 -101 39t-100 12q-86 0 -132 -47t-46 -147v-92h334v-179h-334v-784h-198zM870 1239q0 45 33 77t80 32t80 -32t33 -77q0 -47 -33 -78t-80 -31t-80 31t-33 78z M885 0v997h194v-997h-194z" />
<glyph unicode="&#xfb02;" d="M156 0v1051q0 80 23.5 147.5t69.5 117.5t113.5 78.5t155.5 28.5q57 0 117.5 -9t150.5 -52l-53 -164q-55 27 -101 39t-100 12q-86 0 -132 -47t-46 -147v-92h334v-179h-334v-784h-198zM874 0v1442h197v-1442h-197z" />
</font>
</defs>
</svg>
